<?xml version="1.0" encoding="UTF-8" standalone="no"?>
<!-- Created with Inkscape (http://www.inkscape.org/) -->

<svg
   xmlns:dc="http://purl.org/dc/elements/1.1/"
   xmlns:cc="http://creativecommons.org/ns#"
   xmlns:rdf="http://www.w3.org/1999/02/22-rdf-syntax-ns#"
   xmlns:svg="http://www.w3.org/2000/svg"
   xmlns="http://www.w3.org/2000/svg"
   xmlns:sodipodi="http://sodipodi.sourceforge.net/DTD/sodipodi-0.dtd"
   xmlns:inkscape="http://www.inkscape.org/namespaces/inkscape"
   width="587.5"
   height="550"
   id="svg2"
   sodipodi:version="0.32"
   inkscape:version="0.47 r22583"
   sodipodi:docname="Régions_de_France.svg"
   version="1.0"
   inkscape:output_extension="org.inkscape.output.svg.inkscape"
   style="display:inline">
  <defs
     id="defs4">
    <inkscape:perspective
       sodipodi:type="inkscape:persp3d"
       inkscape:vp_x="0 : 275 : 1"
       inkscape:vp_y="0 : 1000 : 0"
       inkscape:vp_z="587.5 : 275 : 1"
       inkscape:persp3d-origin="293.75 : 183.33333 : 1"
       id="perspective581" />
  </defs>
  <sodipodi:namedview
     id="base"
     pagecolor="#ffffff"
     bordercolor="#666666"
     borderopacity="1.0"
     inkscape:pageopacity="0.0"
     inkscape:pageshadow="2"
     inkscape:zoom="1.2327273"
     inkscape:cx="139.39201"
     inkscape:cy="165.96983"
     inkscape:document-units="px"
     inkscape:current-layer="layer13"
     inkscape:window-width="1261"
     inkscape:window-height="824"
     inkscape:window-x="171"
     inkscape:window-y="25"
     showguides="true"
     inkscape:guide-bbox="true"
     borderlayer="top"
     showgrid="false"
     inkscape:window-maximized="0" />
  <metadata
     id="metadata7">
    <rdf:RDF>
      <cc:Work
         rdf:about="">
        <dc:format>image/svg+xml</dc:format>
        <dc:type
           rdf:resource="http://purl.org/dc/dcmitype/StillImage" />
        <cc:license
           rdf:resource="http://creativecommons.org/licenses/publicdomain/" />
        <dc:title>Départements et régions en France</dc:title>
      </cc:Work>
      <cc:License
         rdf:about="http://creativecommons.org/licenses/publicdomain/">
        <cc:permits
           rdf:resource="http://creativecommons.org/ns#Reproduction" />
        <cc:permits
           rdf:resource="http://creativecommons.org/ns#Distribution" />
        <cc:permits
           rdf:resource="http://creativecommons.org/ns#DerivativeWorks" />
      </cc:License>
    </rdf:RDF>
  </metadata>
  <g
     inkscape:groupmode="layer"
     id="layer2"
     inkscape:label="Region"
     style="opacity:0.73999999;display:inline"
     sodipodi:insensitive="true">
    <path
       style="fill:;fill-opacity:1;fill-rule:evenodd;stroke:#7f7f7f;stroke-width:1;stroke-linecap:butt;stroke-linejoin:miter;stroke-miterlimit:4;stroke-opacity:1;stroke-dasharray:none;display:inline"
       d="m 247.46875,347.3125 -4.15625,1.9375 -0.59375,0.0937 0.125,0.1875 -1.34375,1.15625 0,2.15625 1.75,1.9375 -1.75,3.125 -1.5625,1 -0.21875,1.9375 -3.3125,0.40625 0.1875,2.125 1.1875,0.40625 -2.75,3.90625 -4.28125,0.375 -0.1875,2.9375 -1.78125,1.75 -0.96875,2.5625 -3.90625,0.1875 1.5625,5.84375 1.96875,4.3125 -4.3125,0.78125 -2.9375,-1.75 -1.375,4.46875 2.15625,2.34375 -0.96875,3.71875 -1.1875,1.375 0.8125,2.34375 -3.71875,0.78125 -2.9375,0.78125 0.78125,2.71875 -1.9375,0.59375 -1,0.96875 -2.9375,-2.90625 -5.84375,0.5625 -1.5625,2.75 -3.53125,0.375 -3.3125,0.59375 -1.375,-1.9375 -3.125,3.125 -2.3125,-1.96875 -1.375,2.9375 0.1875,2.53125 -2.15625,0.59375 -0.96875,-1.375 -0.96875,-2.9375 -2.75,2.34375 -1.9375,-0.78125 -2.15625,0.40625 -1.9375,2.34375 2.3125,3.90625 -1.5625,1.5625 0.59375,3.3125 -1.9375,2.53125 -1.375,3.71875 1.5625,2.75 5.28125,0.375 3.3125,5.46875 -2.15625,1.96875 1.5625,2.34375 2.34375,3.5 -1.9375,2.53125 -3.125,7.03125 -5.28125,4.5 1.375,2.75 -1.1875,0.78125 -2.90625,-0.59375 -0.8125,6.4375 -1.5625,1.1875 -0.3125,4.03125 0.5,-0.28125 3.3125,1.96875 3.90625,2.9375 0.375,2.34375 3.125,2.53125 2.5625,0 6.4375,-2.75 2.71875,3.125 3.71875,1 1.375,-2.34375 1.75,0.78125 11.71875,0.78125 0.40625,-9.59375 2.71875,0.40625 5.09375,2.9375 6.03125,1.15625 2.5625,0 3.3125,4.3125 8.40625,-0.40625 3.3125,5.28125 2.9375,-1.1875 8.59375,1.1875 0.625,3.59375 6.0625,-1.40625 2.21875,-1.9375 3.3125,-0.84375 0.8125,-1.65625 7.1875,-0.53125 -4.40625,-5.25 -3.59375,1.9375 -6.34375,-5.25 1.375,-1.9375 4.96875,0 -0.5625,-4.6875 0,-3.59375 -0.8125,-6.65625 -9.6875,-4.6875 0.5625,-1.65625 -2.21875,-2.46875 2.5,-1.125 0.53125,-3.03125 3.0625,-1.375 -0.84375,-1.9375 2.78125,-2.5 1.375,2.5 4.125,-1.375 1.9375,-0.28125 -0.28125,1.375 3.875,0 3.59375,1.125 0.28125,-3.59375 1.65625,0 6.0625,1.09375 5.8125,0 4.40625,-1.375 1.125,-3.59375 -3.03125,-2.78125 0.8125,-2.75 1.65625,-2.46875 2.75,1.90625 7.1875,-2.46875 1.125,-2.21875 1.65625,0 3.3125,0 -0.28125,-5.78125 0,-1.9375 1.65625,0 3.03125,1.65625 3.03125,0 -0.53125,-3.3125 1.65625,-1.40625 3.3125,-0.53125 0,-2.78125 3.59375,-1.65625 -0.84375,-3.84375 -3.03125,0 -2.75,-0.5625 -0.5625,-2.21875 2.21875,-0.53125 0,-2.78125 2.1875,-1.9375 -1.65625,-0.8125 -4.6875,0.8125 0.28125,-2.1875 -3.3125,-1.40625 -0.84375,-6.625 0,-4.6875 -2.75,-1.9375 0.28125,-3.875 -5.8125,-7.15625 -0.5625,-5.53125 -1.90625,0 -0.84375,-5.53125 -3.875,0.5625 -0.53125,-3.59375 -0.5625,-0.84375 -5.53125,4.71875 0,4.6875 -1.375,0 -0.5625,4.40625 -1.375,0.5625 -1.09375,2.46875 -6.09375,0 -0.53125,-0.8125 -2.78125,0 -1.65625,2.75 -2.1875,-0.28125 1.09375,-3.3125 -2.5,-1.09375 2.5,-5.8125 -3.3125,-2.46875 -1.125,-7.1875 -3.03125,-0.8125 -2.21875,2.1875 -1.09375,-1.9375 -3.3125,3.3125 -2.21875,0.28125 -3.84375,-5.5 -4.96875,-2.21875 z"
       id="reg-73"
       inkscape:label="Midi-Pyrénées" />
    <path
       style="fill:;fill-opacity:1;fill-rule:evenodd;stroke:#7f7f7f;stroke-width:1;stroke-linecap:butt;stroke-linejoin:miter;stroke-miterlimit:4;stroke-opacity:1;stroke-dasharray:none;display:inline"
       d="m 209.84375,310.46875 -1.75,3.125 -2.75,0.375 -0.1875,4.6875 -9.1875,6.25 -0.1875,6.84375 -3.53125,3.5 -1.9375,1.78125 -3.90625,-0.40625 -2.15625,3.71875 -1.5625,3.3125 -1.9375,-1.375 -2.75,1.375 -2.34375,-0.375 -4.46875,-4.5 -2.75,-0.1875 -0.78125,-6.25 -5.09375,-0.59375 -0.1875,-2.9375 -0.96875,0.96875 -5.78125,0 0.28125,1.25 1.375,5.65625 0.375,5.65625 -0.96875,1.5625 -0.96875,-4.6875 -2.75,-10.71875 -9.96875,-9 0.21875,-4.09375 -1.96875,-0.1875 -3.125,4.6875 -0.96875,16.40625 -2.53125,16.59375 -1.78125,12.875 -0.1875,3.34375 1.375,-4.5 2.71875,-3.53125 3.90625,3.53125 0.40625,1.15625 1.15625,1.5625 -4.875,0.21875 -0.78125,-1.1875 -1.9375,0.78125 -0.40625,2.9375 -2.15625,2.9375 0,4.46875 -3.5,18.75 -4.5,17.1875 -1.375,6.65625 -1.15625,4.6875 -3.71875,6.4375 -4.5,5.46875 -3.5,1.375 -2.53125,0.375 0,2.15625 2.34375,2.15625 3.5,0.1875 0.1875,2.53125 2.75,0.21875 0.78125,-1.78125 3.71875,1.5625 2.34375,0.59375 0.5625,2.34375 -1.34375,1.1875 0,3.6875 -2.75,1.375 -0.1875,1.75 1.75,1.96875 3.125,0.96875 0.59375,-2.9375 1.75,-1.9375 -0.1875,2.53125 1.375,1.96875 3.5,0 1.5625,2.125 4.6875,0.78125 4.5,2.75 7.40625,0 0.40625,4.09375 5.0625,3.90625 1.96875,2.34375 2.15625,-1.15625 1.9375,-0.40625 0.96875,0.96875 1.78125,-0.96875 3.40625,-1.875 0.3125,-4.03125 1.5625,-1.1875 0.8125,-6.4375 2.90625,0.59375 1.1875,-0.78125 -1.375,-2.75 5.28125,-4.5 3.125,-7.03125 1.9375,-2.53125 -2.34375,-3.5 -1.5625,-2.34375 2.15625,-1.96875 -3.3125,-5.46875 -5.28125,-0.375 -1.5625,-2.75 1.375,-3.71875 1.9375,-2.53125 -0.59375,-3.3125 1.5625,-1.5625 -2.3125,-3.90625 1.9375,-2.34375 2.15625,-0.40625 1.9375,0.78125 2.75,-2.34375 0.96875,2.9375 0.96875,1.375 2.15625,-0.59375 -0.1875,-2.53125 1.375,-2.9375 2.3125,1.96875 3.125,-3.125 1.375,1.9375 3.3125,-0.59375 3.53125,-0.375 1.5625,-2.75 5.84375,-0.5625 2.9375,2.90625 1,-0.96875 1.9375,-0.59375 -0.78125,-2.71875 2.9375,-0.78125 3.71875,-0.78125 -0.8125,-2.34375 1.1875,-1.375 0.96875,-3.71875 -2.15625,-2.34375 1.375,-4.46875 2.9375,1.75 4.3125,-0.78125 -1.96875,-4.3125 -1.5625,-5.84375 3.90625,-0.1875 0.96875,-2.5625 1.78125,-1.75 0.1875,-2.9375 4.28125,-0.375 2.75,-3.90625 -1.1875,-0.40625 -0.1875,-2.125 3.3125,-0.40625 0.21875,-1.9375 1.5625,-1 1.75,-3.125 -1.75,-1.9375 0,-2.15625 1.34375,-1.15625 -1.75,-2.75 0.1875,-4.28125 -4.28125,0.1875 -1.75,-1.1875 1.5625,-1.9375 -2.15625,-1.75 1.5625,-1.96875 -1.5625,-0.78125 0,-2.71875 3.90625,-3.53125 -2.15625,-1.75 -1.15625,-2.9375 -4.125,-0.59375 -1.375,-0.96875 2.9375,-1.375 -0.96875,-1.34375 -4.28125,-0.59375 -1,-3.90625 -6.25,-0.59375 -1.375,1.96875 -1.34375,0.375 -1.78125,-2.34375 0.8125,-2.15625 -1,-1.9375 -5.65625,-0.1875 z"
       id="reg-72"
       inkscape:label="Aquitaine" />
    <path
       style="fill:;fill-opacity:1;fill-rule:evenodd;stroke:#7f7f7f;stroke-width:1;stroke-linecap:butt;stroke-linejoin:miter;stroke-miterlimit:4;stroke-opacity:1;stroke-dasharray:none;display:inline"
       d="m 320.78125,352.25 -5.46875,1.96875 -1.5625,3.5 -3.5,-2.34375 -2.75,8.59375 -2.8125,6.46875 4.09375,5.03125 -0.28125,3.875 2.75,1.9375 0,4.6875 0.84375,6.625 3.3125,1.40625 -0.28125,2.1875 4.6875,-0.8125 1.65625,0.8125 -2.1875,1.9375 0,2.78125 -2.21875,0.53125 0.5625,2.21875 2.75,0.5625 3.03125,0 0.84375,3.84375 -3.59375,1.65625 0,2.78125 -3.3125,0.53125 -1.65625,1.40625 0.53125,3.3125 -3.03125,0 -3.03125,-1.65625 -1.65625,0 0,1.9375 0.28125,5.78125 -3.3125,0 -1.65625,0 -1.125,2.21875 -7.1875,2.46875 -2.75,-1.90625 -1.65625,2.46875 -0.8125,2.75 3.03125,2.78125 -1.125,3.59375 -4.40625,1.375 -5.8125,0 -6.0625,-1.09375 -1.65625,0 -0.28125,3.59375 -3.59375,-1.125 -3.875,0 0.28125,-1.375 -1.9375,0.28125 -4.125,1.375 -1.375,-2.5 -2.78125,2.5 0.84375,1.9375 -3.0625,1.375 -0.53125,3.03125 -2.5,1.125 2.21875,2.46875 -0.5625,1.65625 9.6875,4.6875 0.8125,6.65625 0,3.59375 0.5625,4.6875 -4.96875,0 -1.375,1.9375 6.34375,5.25 3.59375,-1.9375 4.40625,5.25 -7.1875,0.53125 -0.8125,1.65625 -3.3125,0.84375 -2.21875,1.9375 -6.0625,1.40625 0.34375,2.0625 2.9375,2.75 5.84375,1.5625 0.1875,3.5 3.125,2.75 2.34375,-0.40625 3.34375,-4.09375 4.09375,-0.78125 6.4375,2.15625 5.46875,4.6875 1.5625,-1.96875 1.375,0 1.375,0.96875 1.15625,-0.5625 0.1875,-2.75 5.875,-1.375 1.9375,-2.53125 2.9375,-0.96875 4.09375,0 2.5625,2.71875 3.125,0.21875 0,-3.125 -1.5625,-2.15625 -2.75,-1.1875 -0.59375,-22.65625 0.21875,-6.4375 -2.34375,0.1875 -1.96875,-2.90625 1.5625,-2.5625 3.3125,3.125 2.9375,-2.34375 1.96875,-1.9375 0.375,-3.125 7.03125,-2.15625 0.78125,-1.75 5.46875,-0.1875 1.75,-2.15625 10.5625,-8.40625 6.625,-4.6875 5.6875,0.40625 0,3.90625 4.46875,-0.21875 2.40625,0.125 1.75,-4.0625 6.34375,-3.875 -1.375,-1.9375 1.65625,-4.40625 5.78125,0.8125 1.40625,-10.5 7.71875,-4.40625 0,-2.5 -5.8125,-5.78125 0,-4.4375 -3.3125,-5.5 -6.90625,-3.875 -0.53125,3.03125 -2.78125,0.28125 -0.8125,-3.03125 -2.78125,0.53125 -0.53125,3.875 -2.21875,-0.8125 -4.6875,-3.0625 -2.21875,1.125 0,-5.53125 -4.15625,-2.5 0.5625,-4.125 -3.3125,-3.59375 -1.375,-7.1875 -4.96875,-6.34375 -3.625,0.875 -0.78125,-2.71875 -1.96875,0 -0.375,2.34375 -5.0625,1.5625 -3.53125,-9 z"
       id="reg-91"
       inkscape:label="Languedoc-Roussillon" />
    <path
       style="fill:;fill-opacity:1;fill-rule:evenodd;stroke:#7f7f7f;stroke-width:1;stroke-linecap:butt;stroke-linejoin:miter;stroke-miterlimit:4;stroke-opacity:1;stroke-dasharray:none;display:inline"
       d="m 447.34375,339.15625 -1.75,0.78125 -0.40625,2.9375 -3.5,0.40625 -0.59375,-2.75 -1.15625,-1.15625 -3.53125,0.375 -1.375,1.1875 -0.78125,4.09375 0.59375,0.96875 4.09375,0.40625 0.78125,2.53125 1.5625,0.78125 0,4.28125 -3.71875,-0.1875 -1.5625,1.75 -4.46875,-0.78125 -2.53125,2.15625 -1.78125,-0.78125 -2.53125,1.96875 0.96875,1.75 -1.5625,1.5625 -4.875,0 0,2.34375 1.5625,0.78125 -0.59375,1.375 -3.3125,1.34375 -4.09375,0.40625 -1.1875,3.71875 -0.1875,2.34375 2.15625,1.75 -2.15625,2.53125 -2.71875,-1.375 -3.125,-0.1875 -0.40625,1.75 1.96875,1.375 -2.375,1.5625 0.8125,3.3125 6.625,1.78125 1.1875,2.53125 1.9375,0.375 -0.78125,7.25 -1.15625,-1.375 -1.5625,-1.375 -1,2.9375 -1.75,1.5625 -2.53125,-0.1875 -2.9375,-2.15625 -0.78125,-2.53125 -5.46875,-0.40625 -4.09375,-0.375 -0.40625,-2.34375 1.375,-2.9375 -2.53125,2.15625 -3.90625,-0.40625 -0.78125,-1.375 2.71875,-3.6875 -2.71875,-2.5625 -2.75,0.21875 -2.125,3.3125 0.5625,3.5 3.3125,0.40625 -0.5625,1.5625 -2.5625,0.1875 -2.90625,2.9375 -0.78125,-0.96875 0.5625,-3.90625 -1.15625,-1.375 -5.28125,0.78125 -1.03125,2.09375 0.5625,0.3125 3.3125,5.5 0,4.4375 5.8125,5.78125 0,2.5 -7.71875,4.40625 -1.40625,10.5 -5.78125,-0.8125 -1.65625,4.40625 1.375,1.9375 -6.34375,3.875 -1.75,4.0625 6.1875,0.28125 8.21875,0.59375 1.5625,1.5625 -2.9375,0 -1.9375,3.3125 8.375,1.75 6.65625,-1.15625 -3.53125,-3.34375 2.34375,-1.9375 3.71875,1.5625 1.75,3.71875 11.15625,0.1875 2.90625,-1.1875 0.59375,1.78125 -3.125,2.71875 4.3125,0.1875 -0.78125,1.96875 -1.1875,1.375 9.5625,0 4.6875,1.5625 1,1.34375 3.5,1.5625 0.96875,3.90625 2.15625,0.40625 1.96875,-1.375 3.5,-2.15625 6.0625,0.59375 -0.1875,1.5625 -1.96875,0.96875 4.6875,0.21875 -1.15625,-1.1875 -0.40625,-2.53125 2.53125,-1.75 2.9375,0.96875 1.1875,0.375 0.96875,1.1875 1.375,-0.96875 0.375,-2.5625 1.5625,-1.34375 4.09375,0 1.1875,-1.78125 2.71875,0.78125 3.125,-1.34375 0,-5.09375 -4.09375,0.1875 3.125,-1.9375 1.5625,-2.15625 0.40625,-3.125 5.65625,-0.78125 3.3125,-3.71875 0.1875,-4.46875 3.90625,0.78125 1.375,-1.78125 1.96875,0.40625 0.1875,-6.0625 4.5,-0.375 3.90625,-3.53125 3.5,0 0.1875,-2.15625 3.53125,-2.125 -1.96875,-4.5 2.9375,-2.53125 -0.59375,-2.9375 4.3125,-1.375 1.15625,-4.28125 -0.5625,-2.9375 -1,-1.75 L 496.125,390 l -2.90625,0.21875 -9.1875,3.3125 -2.9375,0 -5.0625,-4.09375 -5.09375,-1.375 -2.9375,0 0,-3.53125 -4.09375,-2.53125 0,-3.90625 2.75,-0.375 -1.5625,-1.375 -1.96875,-0.59375 -0.96875,-2.53125 0.78125,-1.75 3.5,-3.71875 -0.5625,-2.75 2.34375,-2.53125 2.125,0.1875 0,-1.75 -2.71875,-1.375 -0.59375,-5.65625 -2.15625,-0.78125 -2.71875,0.40625 -5.09375,-2.5625 -0.78125,-5.84375 -2.90625,-0.96875 -1,-1.96875 -1.28125,-2.8125 -3.75,-0.1875 z"
       id="reg-93"
       inkscape:label="Provence-Alpes-Côte d'Azur" />
    <path
       style="fill:;fill-opacity:1;fill-rule:evenodd;stroke:#7f7f7f;stroke-width:1;stroke-linecap:butt;stroke-linejoin:miter;stroke-miterlimit:4;stroke-opacity:1;stroke-dasharray:none;display:inline"
       d="m 188.75,225.6875 -3.71875,3.90625 -1.34375,2.34375 -1.375,-1.15625 -0.59375,-1.375 -5.28125,0.1875 -4.875,0.96875 -5.28125,0.40625 0,2.71875 -2.71875,1.78125 -6.0625,-1.375 -4.09375,1.75 1.9375,2.75 0,2.34375 4.6875,3.90625 -1.15625,2.53125 3.125,3.5 -1.375,1.78125 1.9375,2.90625 0.59375,5.46875 -1.15625,1.5625 1.375,2.34375 -1.375,2.5625 0.1875,1.5625 1.5625,-1.1875 1.9375,1.96875 -2.71875,1.75 L 162,272.75 l -2.15625,0.59375 -2.53125,1.1875 -3.125,-2.34375 -3.71875,1.5625 -1.15625,-3.125 -2.75,0.1875 -5.96875,3.625 1.4375,1.3125 -3.125,2.53125 -0.375,1.96875 -2.9375,0.375 -1.5625,-1.75 -3.90625,-0.375 -0.40625,-1.96875 -2.34375,-1.5625 -3.3125,1.1875 2.15625,3.125 2.71875,0 2.75,1.75 2.15625,1.75 4.09375,-0.1875 0.78125,1.75 2.71875,0.59375 1,2.71875 1.75,0.78125 -0.1875,2.15625 -2.34375,-0.375 -0.78125,1.15625 1.75,2.53125 -0.96875,4.3125 -2.34375,-0.1875 0.1875,2.71875 0.59375,0.96875 -2.75,0 -0.375,-1.5625 1.75,-2.34375 -0.59375,-1.34375 -0.96875,-0.78125 L 136.75,291 l -3.3125,-0.40625 -2.71875,-3.3125 -0.40625,6.84375 4.5,3.3125 0.375,3.71875 0.78125,4.28125 0.40625,4.3125 2.34375,-0.21875 4.09375,3.34375 2.75,1.5625 0.1875,1.9375 2.15625,0.40625 6.25,6.25 1.46875,6.75 5.78125,0 0.96875,-0.96875 0.1875,2.9375 5.09375,0.59375 0.78125,6.25 2.75,0.1875 4.46875,4.5 2.34375,0.375 2.75,-1.375 1.9375,1.375 1.5625,-3.3125 2.15625,-3.71875 3.90625,0.40625 1.9375,-1.78125 3.53125,-3.5 0.1875,-6.84375 9.1875,-6.25 0.1875,-4.6875 2.75,-0.375 1.75,-3.125 1.09375,0.0313 0.65625,-2.96875 1.5625,-0.1875 0.96875,-2.75 1.96875,-0.59375 2.34375,-1.5625 -0.375,-4.875 1.75,-0.59375 3.5,-0.78125 -0.1875,-1.75 -0.59375,-2.71875 -2.71875,-0.21875 -1.5625,-1.75 0.96875,-1.75 0.1875,-5.28125 -1.34375,-1.5625 1.5625,-1.15625 2.53125,-2.9375 4.28125,-0.1875 0,-2.34375 2.15625,-1.78125 5.28125,-0.96875 0.375,-2.9375 -2.125,-1.15625 -1.1875,-4.09375 -3.125,-0.40625 -1.9375,-1.9375 -3.71875,-2.9375 0.78125,-2.34375 0,-3.71875 -3.53125,-3.5 -0.375,-2.75 -3.34375,-3.5 -1.15625,-4.6875 -1.375,-0.59375 -1.5625,-2.15625 -1.5625,0.96875 0.40625,2.15625 -5.09375,1.1875 -5.84375,0 0.1875,-2.34375 0,-3.71875 -4.6875,-1.375 0,-2.34375 -3.71875,-0.78125 -0.78125,-3.125 -1.75,0 z"
       id="reg-54"
       inkscape:label="Poitou-Charentes" />
    <path
       style="fill:;fill-opacity:1;fill-rule:evenodd;stroke:#7f7f7f;stroke-width:1;stroke-linecap:butt;stroke-linejoin:miter;stroke-miterlimit:4;stroke-opacity:1;stroke-dasharray:none;display:inline"
       d="m 256.125,267.875 -1.15625,3.125 -3.53125,-0.1875 -0.78125,-0.40625 -2.34375,0.21875 -1.75,-1.1875 -3.90625,4.5 -3.125,-3.125 -1.75,1.75 -4.90625,-0.375 -0.5625,-0.125 -3.71875,0.6875 -2.15625,1.78125 0,2.34375 -4.28125,0.1875 -2.53125,2.9375 -1.5625,1.15625 1.34375,1.5625 -0.1875,5.28125 -0.96875,1.75 1.5625,1.75 2.71875,0.21875 0.59375,2.71875 0.1875,1.75 -3.5,0.78125 -1.75,0.59375 0.375,4.875 -2.34375,1.5625 -1.96875,0.59375 -0.96875,2.75 -1.5625,0.1875 -0.65625,2.96875 4.5625,0.15625 1,1.9375 -0.8125,2.15625 1.78125,2.34375 1.34375,-0.375 1.375,-1.96875 6.25,0.59375 1,3.90625 4.28125,0.59375 0.96875,1.34375 -2.9375,1.375 1.375,0.96875 4.125,0.59375 1.15625,2.9375 2.15625,1.75 -3.90625,3.53125 0,2.71875 1.5625,0.78125 -1.5625,1.96875 2.15625,1.75 -1.5625,1.9375 1.75,1.1875 4.28125,-0.1875 -0.1875,4.28125 1.625,2.5625 0.59375,-0.0937 4.15625,-1.9375 4.96875,2.21875 3.84375,5.5 2.21875,-0.28125 3.3125,-3.3125 1.09375,1.9375 2.21875,-2.1875 3.03125,0.8125 0.0937,0.65625 2.53125,-1.78125 -0.78125,-1.9375 -1.1875,-1.1875 1.5625,-1.9375 1.5625,0 1,-3.125 0.78125,-1.5625 -0.59375,-3.53125 2.53125,-3.5 3.53125,-2.15625 0.1875,-5.46875 1.75,0.96875 1.96875,2.15625 1.9375,0 1.1875,-1.375 -0.96875,-2.34375 0.96875,-3.5 -0.59375,-3.3125 -1.1875,-1.375 0,-2.75 1.78125,-2.90625 -0.40625,-2.75 -4.5,-4.5 -0.375,-1.75 3.71875,-2.15625 2.15625,-1.15625 0.5625,-2.75 2.34375,-1.75 L 288.9375,291.5 287.375,289.5625 287,283.5 l -2.15625,-5.0625 -2.15625,-0.78125 -1.5625,-2.75 -1.375,1.75 -1.34375,-1.75 0,-2.34375 -2.34375,-3.3125 -6.4375,0.78125 -3.71875,-0.96875 -9.78125,-1.1875 z"
       id="reg-74"
       inkscape:label="Limousin" />
    <path
       style="fill:;fill-opacity:1;fill-rule:evenodd;stroke:#7f7f7f;stroke-width:1;stroke-linecap:butt;stroke-linejoin:miter;stroke-miterlimit:4;stroke-opacity:1;stroke-dasharray:none;display:inline"
       d="m 301.625,247.96875 -2.71875,3.5 -1.5625,0.1875 -1.75,1.78125 -1.96875,-2.15625 -5.25,5.28125 0,3.125 0.96875,0.78125 0.1875,1.5625 -2.71875,2.125 -2.5625,-0.78125 -4.875,1 -2.53125,2.90625 -0.9375,2 0.15625,-0.0313 2.34375,3.3125 0,2.34375 1.34375,1.75 1.375,-1.75 1.5625,2.75 2.15625,0.78125 L 287,283.5 l 0.375,6.0625 1.5625,1.9375 0.78125,3.71875 -2.34375,1.75 -0.5625,2.75 -2.15625,1.15625 -3.71875,2.15625 0.375,1.75 4.5,4.5 0.40625,2.75 -1.78125,2.90625 0,2.75 1.1875,1.375 0.59375,3.3125 -0.96875,3.5 0.96875,2.34375 -1.1875,1.375 -1.9375,0 -1.96875,-2.15625 -1.75,-0.96875 -0.1875,5.46875 -3.53125,2.15625 -2.53125,3.5 0.59375,3.53125 -0.78125,1.5625 -1,3.125 -1.5625,0 -1.5625,1.9375 1.1875,1.1875 0.78125,1.9375 -2.53125,1.78125 1.03125,6.53125 3.3125,2.46875 -2.5,5.8125 2.5,1.09375 -1.09375,3.3125 2.1875,0.28125 1.65625,-2.75 2.78125,0 0.53125,0.8125 6.09375,0 1.09375,-2.46875 1.375,-0.5625 0.5625,-4.40625 1.375,0 0,-4.6875 5.53125,-4.71875 0.5625,0.84375 0.53125,3.59375 3.875,-0.5625 0.84375,5.53125 1.90625,0 0.5625,5.53125 1.71875,2.125 2.8125,-6.46875 2.75,-8.59375 3.5,2.34375 1.5625,-3.5 5.46875,-1.96875 3.53125,9 5.0625,-1.5625 0.375,-2.34375 1.96875,0 0.78125,2.71875 3.625,-0.875 4.5,5.75 2.8125,-4.46875 5.0625,-3.71875 4.6875,0 1.5625,-4.875 3.125,-0.21875 0.21875,-3.6875 2.90625,0 -0.5625,-1.375 -0.78125,-2.53125 1.15625,-1.96875 2.75,-1.15625 1.15625,-4.6875 -2.53125,-2.9375 -3.125,0.1875 0.375,-3.71875 -6.25,-2.71875 -2.125,0.1875 -4.3125,3.53125 -5.46875,-1.78125 -0.59375,-2.34375 3.71875,-3.5 -1.75,-6.4375 -5.09375,-3.34375 -2.125,-5.0625 -2.34375,-3.125 0.59375,-4.3125 1.75,-1.75 -3.125,-2.53125 0.1875,-1.75 4.6875,-0.21875 -0.375,-11.125 -1.375,-2.71875 0.5625,-2.15625 3.25,-0.5625 0.0937,-0.21875 4.09375,-3.125 0.1875,-7.625 -1.375,-1.9375 -3.125,0 -1.15625,-1.5625 -3.3125,0 -0.96875,-1.1875 0,-2.9375 -3.9375,-7.40625 -1.9375,-1.375 -3.71875,5.09375 -1.5625,0.375 -0.59375,-2.53125 -1.75,-0.78125 -0.78125,1.5625 -2.90625,0 -0.40625,-1.75 -1.9687,1.15625 L 312,255 l -2.34375,-2.5625 -3.34375,-1.5625 -0.1875,-2.53125 -4.5,-0.375 z"
       id="reg-83"
       inkscape:label="Auvergne" />
    <path
       style="fill:;fill-opacity:1;fill-rule:evenodd;stroke:#7f7f7f;stroke-width:1;stroke-linecap:butt;stroke-linejoin:miter;stroke-miterlimit:4;stroke-opacity:1;stroke-dasharray:none;display:inline"
       d="m 69.78125,123.21875 -1.78125,1.375 -4.46875,0.5625 -1,1.375 -3.125,-2.34375 -4.09375,2.75 1.5625,2.125 -2.71875,3.71875 -3.34375,-1.9375 -5.46875,0.1875 0,3.90625 -1.5625,0 -0.375,-1.75 -2.34375,0.375 -0.40625,-4.5 -2.125,2.34375 -2.34375,-0.96875 -4.3125,0.40625 -0.78125,1.9375 -2.53125,0.59375 -0.40625,-2.15625 -4.46875,0.59375 0,1.375 -3.125,0.1875 -1.375,-0.96875 -1.5625,0.78125 -0.40625,2.34375 -5.25,0.1875 -2.75,3.3125 2.34375,1.75 -3.125,2.5625 0.96875,1.75 -0.78125,4.28125 3.125,0.40625 1.1875,-1.1875 0.59375,0.78125 7.40625,-0.96875 4.875,-3.5 -4.28125,4.09375 0.375,1.9375 3.90625,-1.75 -0.78125,2.75 4.3125,0.1875 -0.1875,1.15625 -4.6875,-0.1875 -3.71875,-0.96875 -4.5,-2.15625 -2.71875,3.125 3.5,1.1875 -0.1875,5.25 0.96875,-0.78125 2.15625,-3.3125 4.09375,2.34375 1.96875,0.40625 0.78125,3.125 -1.1875,2.125 -2.53125,-0.1875 -2.34375,0 -3.90625,0.59375 -6.65625,0.375 L 8.84375,166 l 1.9375,1.15625 2.15625,-0.1875 1.75,1.5625 2.53125,-0.1875 4.125,4.6875 0.96875,5.0625 -1.375,2.75 4.09375,0.78125 4.5,-0.21875 0.96875,-1.75 -1.75,-2.34375 1.75,0.78125 1.78125,-0.1875 3.125,1.75 1.9375,-0.375 0,-3.34375 0.78125,3.34375 2.53125,4.09375 5.46875,0.375 0.21875,-1.15625 1.34375,1.9375 3.34375,0.59375 2.53125,0 2.34375,3.71875 3.125,0.78125 1.15625,-1.75 -0.5625,2.125 2.71875,1.1875 3.53125,3.5 1.15625,2.15625 -0.375,2.53125 -0.40625,2.5625 2.34375,1.75 1.1875,-1.375 -1.1875,-1.5625 0,-3.5 2.34375,0.5625 0.78125,-2.34375 0.59375,1.375 2.53125,2.15625 1.1875,-1.96875 -1.1875,-2.71875 L 77,197.25 l 2.71875,-0.40625 -0.5625,-1.375 2.53125,0.59375 1.9375,2.34375 -0.96875,1.5625 -2.53125,-0.78125 -2.9375,-1.375 -1.5625,1.96875 2.34375,0.78125 1.75,2.71875 10.5625,-0.96875 2.71875,0.59375 -1.34375,1.15625 0.1875,1.78125 0.375,0.28125 0.84375,-0.15625 1.75,-1.75 1.15625,1.34375 3.125,0 3.71875,-1.9375 5.46875,-2.15625 0.1875,-5.46875 5.09375,-2.71875 12.09375,-0.59375 0.78125,-2.15625 1.96875,-1.9375 4.28125,-0.59375 0.1875,-2.15625 2.9375,0.40625 1.75,2.34375 3.9375,0.96875 0.75,-1.5625 1,-3.53125 2.53125,-6.25 1.375,-0.78125 3.3125,0.40625 0,-5.28125 -1.375,-1.375 0,-5.65625 -0.59375,-1.9375 0,-3.125 1.96875,-1.96875 0,-3.90625 -0.96875,-0.78125 0.1875,-5.46875 -1.5625,-0.78125 -2.34375,0 -1.96875,-1.5625 -2.125,2.53125 -1.75,0.21875 -1.5625,2.125 -1.5625,-0.375 -3.34375,-2.9375 -1.15625,-3.71875 -0.59375,-2.46875 -9.59375,0 -3.53125,-2.15625 2.34375,-3.125 -4.6875,-0.1875 -3.125,3.53125 -3.71875,-0.40625 -0.375,2.15625 -2.34375,0.1875 -0.1875,-2.71875 -1.96875,-0.59375 -1.375,1.5625 0,-3.90625 -2.34375,1.75 -3.5,-0.59375 -1.1875,2.34375 -7.21875,3.90625 0,1.96875 -1.5625,0 0,-3.53125 -4.09375,-1.9375 0.375,-3.53125 -3.6875,-2.71875 0,-3.3125 -2.75,-0.59375 0.1875,-3.125 -2.125,-0.1875 0.1875,-2.15625 -3.90625,0 -0.59375,1.9375 -1.15625,-2.71875 z"
       id="reg-53"
       inkscape:label="Bretagne" />
    <path
       style="fill:;fill-opacity:1;fill-rule:evenodd;stroke:#7f7f7f;stroke-width:1;stroke-linecap:butt;stroke-linejoin:miter;stroke-miterlimit:4;stroke-opacity:1;stroke-dasharray:none;display:inline"
       d="m 182.5,146.40625 -1.9375,0.1875 -0.8125,1.9375 -2.90625,1.1875 -5.28125,-0.78125 -5.28125,3.125 -1.9375,-1.375 -2.9375,1.96875 -2.15625,-1.5625 -1.375,-2.34375 -2.90625,-1.1875 -1.96875,1.5625 -3.3125,-0.40625 -0.1875,5.09375 0.96875,0.78125 0,3.90625 -1.96875,1.96875 0,3.125 0.59375,1.9375 0,5.65625 1.375,1.375 0,5.28125 -3.3125,-0.40625 -1.375,0.78125 -2.53125,6.25 -1,3.53125 -0.75,1.5625 -3.9375,-0.96875 -1.75,-2.34375 -2.9375,-0.40625 -0.1875,2.15625 -4.28125,0.59375 -1.96875,1.9375 -0.78125,2.15625 -12.09375,0.59375 -5.09375,2.71875 -0.1875,5.46875 -5.46875,2.15625 -3.71875,1.9375 -3.125,0 -1.15625,-1.34375 -1.75,1.75 -0.84375,0.15625 1,0.6875 -3.71875,3.3125 0.78125,0.78125 0.78125,1.5625 -1.96875,2.75 2.15625,1.15625 3.71875,0.78125 0.375,-1.5625 2.15625,2.75 3.53125,0 2.53125,-2.75 3.3125,0 -3.5,1.75 0.1875,1.96875 0.78125,1.75 -2.15625,2.15625 -2.34375,0 0.40625,2.9375 4.28125,-0.78125 5.09375,4.6875 -6.0625,7.8125 -0.1875,4.6875 6.03125,5.84375 -0.1875,1.75 1.75,0 3.71875,11.15625 3.90625,1.9375 3.90625,3.90625 4.5,0 1.75,3.90625 4.3125,0 L 135,274 l 4.3125,2.15625 0.1875,-2.75 1.09375,1.03125 5.96875,-3.625 2.75,-0.1875 1.15625,3.125 3.71875,-1.5625 3.125,2.34375 2.53125,-1.1875 L 162,272.75 l 0.96875,-1.15625 2.71875,-1.75 -1.9375,-1.96875 -1.5625,1.1875 L 162,267.5 l 1.375,-2.5625 -1.375,-2.34375 1.15625,-1.5625 -0.59375,-5.46875 -1.9375,-2.90625 1.375,-1.78125 -3.125,-3.5 1.15625,-2.53125 -4.6875,-3.90625 0,-2.34375 -1.9375,-2.75 4.09375,-1.75 6.0625,1.375 2.71875,-1.78125 0,-2.71875 5.28125,-0.40625 4.875,-0.96875 5.28125,-0.1875 0.59375,1.375 1.375,1.15625 1.34375,-2.34375 3.71875,-3.90625 1.5,0 2.21875,-8 3.125,-3.71875 -0.21875,-4.28125 1.96875,-2.5625 0,-1.15625 -0.96875,-1.1875 1.9375,-3.90625 3.90625,2.75 2.15625,0 -1.1875,-3.90625 2.375,1.5625 1.34375,-1.96875 5.65625,-1.5625 -0.96875,-2.34375 1.375,-1.75 2.9375,-1.15625 2.71875,-3.53125 0,-3.71875 1.96875,0 0.78125,-2.71875 0.1875,-4.09375 -1.9375,-1.78125 1.5625,-2.71875 L 223.5,171 l -2.71875,-1.9375 -2.53125,-0.40625 -2.75,-4.09375 -0.78125,0 -0.1875,1.9375 -0.1875,-1.34375 -4.09375,0 -1.96875,-2.9375 -3.3125,-1.1875 L 204,154 l -1.5625,-2.125 -5.28125,0.1875 -5.28125,4.875 -3.3125,-0.1875 -1,-3.53125 -2.53125,-0.96875 -0.78125,-4.28125 -1.75,-1.5625 z"
       id="reg-52"
       inkscape:label="Pays-de-la-Loire" />
    <path
       style="fill:;fill-opacity:1;fill-rule:evenodd;stroke:#7f7f7f;stroke-width:1;stroke-linecap:butt;stroke-linejoin:miter;stroke-miterlimit:4;stroke-opacity:1;stroke-dasharray:none;display:inline"
       d="m 119.5625,77.5 -0.78125,1.96875 4.125,3.3125 0,4.3125 -1.5625,1.9375 L 122.3125,90 122.90625,90.40625 122.5,94.125 l 1.375,3.125 4.5,5.0625 0.96875,4.5 0.96875,1.375 0,7.03125 2.34375,4.6875 0,5.46875 -2.53125,5.0625 2.71875,7.03125 4.3125,0.96875 0.375,1.96875 -2.125,0.96875 -3.6875,0 0.59375,2.46875 1.15625,3.71875 3.34375,2.9375 1.5625,0.375 1.5625,-2.125 1.75,-0.21875 2.125,-2.53125 1.96875,1.5625 2.34375,0 1.5625,0.78125 0,0.375 3.3125,0.40625 1.96875,-1.5625 2.90625,1.1875 1.375,2.34375 2.15625,1.5625 2.9375,-1.96875 1.9375,1.375 5.28125,-3.125 5.28125,0.78125 2.90625,-1.1875 0.8125,-1.9375 1.9375,-0.1875 1.75,1.5625 0.78125,4.28125 2.53125,0.96875 1,3.53125 3.3125,0.1875 5.28125,-4.875 5.28125,-0.1875 L 204,154 l 0.96875,7.03125 3.3125,1.1875 1.96875,2.9375 4.09375,0 0.1875,1.34375 0.1875,-1.9375 0.78125,0 2.75,4.09375 2.125,0.34375 0,-4.625 -1.34375,-1.78125 -0.40625,-1.5625 2.9375,-1.75 2.9375,-0.59375 1.9375,-2.34375 -0.375,-7.21875 -4.125,-3.5 -0.1875,-3.34375 -3.5,-2.34375 1.375,-1.9375 -0.8125,-2.9375 -2.71875,-0.96875 -1.96875,-1.96875 -1.15625,-2.71875 -5.46875,-0.1875 -1.5625,-1.96875 1.5625,-4.5 -0.1875,-1.75 -1.96875,-0.78125 -0.1875,-1.375 1.75,-1.15625 0.21875,-1.96875 -1.1875,-4.6875 -2.34375,-3.3125 1.96875,-1.15625 0,-0.78125 -1.96875,-0.59375 -0.9375,-7.40625 -4.5625,0.8125 -7.4375,4.3125 -8.375,3.3125 -6.65625,-3.71875 -16,-2.34375 -3.71875,-1.9375 -7.625,1.9375 -0.1875,-4.6875 L 143,89.4375 l 1.5625,-3.90625 2.15625,0 -1.9375,-5.28125 -8.40625,-0.40625 -4.5,3.125 -5.0625,-3.3125 -7.25,-2.15625 z"
       id="reg-25"
       inkscape:label="Basse-Normandie" />
    <path
       style="fill:;fill-opacity:1;fill-rule:evenodd;stroke:#7f7f7f;stroke-width:1;stroke-linecap:butt;stroke-linejoin:miter;stroke-miterlimit:4;stroke-opacity:1;stroke-dasharray:none;display:inline"
       d="m 247.15625,126.09375 -1.1875,0.96875 0,3.125 -3.90625,1.9375 0,2.9375 -1.15625,1.375 -4.90625,0 -2.3125,-0.96875 -7.0625,3.6875 -2.71875,0 -2.8125,2.6875 0.65625,0.4375 0.1875,3.34375 4.125,3.5 0.375,7.21875 -1.9375,2.34375 -2.9375,0.59375 -2.9375,1.75 0.40625,1.5625 1.34375,1.78125 0,4.625 0.40625,0.0625 L 223.5,171 l -2.3125,2.9375 -1.5625,2.71875 1.9375,1.78125 -0.1875,4.09375 -0.78125,2.71875 -1.96875,0 0,3.71875 -2.71875,3.53125 -2.9375,1.15625 -1.375,1.75 0.96875,2.34375 -5.65625,1.5625 -1.34375,1.96875 -2.375,-1.5625 1.1875,3.90625 -2.15625,0 -3.90625,-2.75 -1.9375,3.90625 0.96875,1.1875 0,1.15625 -1.96875,2.5625 0.21875,4.28125 -3.125,3.71875 -2.21875,8 0.25,0 0.78125,3.125 3.71875,0.78125 0,2.34375 4.6875,1.375 0,3.71875 -0.1875,2.34375 5.84375,0 5.09375,-1.1875 -0.40625,-2.15625 1.5625,-0.96875 1.5625,2.15625 1.375,0.59375 1.15625,4.6875 3.34375,3.5 0.375,2.75 3.53125,3.5 0,3.71875 -0.78125,2.34375 3.71875,2.9375 1.9375,1.9375 3.125,0.40625 1.1875,4.09375 2.125,1.15625 -0.375,2.9375 -1.5625,0.28125 0.5625,0.125 4.90625,0.375 1.75,-1.75 3.125,3.125 3.90625,-4.5 1.75,1.1875 2.34375,-0.21875 0.78125,0.40625 3.53125,0.1875 1.15625,-3.125 9.78125,1.1875 3.71875,0.96875 6.28125,-0.75 0.9375,-2 2.53125,-2.90625 4.875,-1 2.5625,0.78125 2.71875,-2.125 -0.1875,-1.5625 -0.96875,-0.78125 0,-3.125 5.25,-5.28125 1.96875,2.15625 1.75,-1.78125 1.5625,-0.1875 2.71875,-3.5 4.5,0.375 0.0625,1.0625 1.5,-4.78125 -0.96875,-1.75 0.1875,-2.53125 0.59375,-5.09375 -2.15625,-2.125 0.40625,-4.6875 -1.96875,-4.125 -0.1875,-2.71875 -3.53125,-2.75 L 299.5,216.5 l 1.75,-2.53125 0,-3.71875 -2.34375,-2.71875 -0.1875,-1.96875 3.90625,-1.15625 -0.59375,-2.15625 -0.59375,-3.125 -2.53125,-3.5 -0.59375,-2.15625 3.90625,0 2.75,-1.96875 0.375,-2.90625 -1.75,-1.96875 5.09375,-4.28125 0,-3.53125 -2.5625,-2.71875 -0.96875,-3.125 -3.53125,-3.34375 -4.875,2.75 -0.375,-1.5625 -2.15625,-0.1875 -0.59375,1.5625 -1.9375,0.375 -5.28125,-0.1875 -2.15625,1.375 -1.75,-1.5625 3.125,-2.15625 -0.1875,-3.3125 -2.34375,-1.1875 -1.96875,-2.9375 -5.25,-0.375 -2.15625,-1.75 -2.53125,2.34375 -6.25,0.5625 -0.40625,-5.25 L 264.125,157.53125 263.75,155 l -4.09375,-0.78125 -1.78125,-2.15625 -0.5625,-4.3125 -2.34375,-0.375 -0.40625,-2.15625 -2.71875,-1.9375 -1.375,-3.34375 1.375,-2.34375 -1.375,-1.5625 0,-1.9375 0.78125,-2.15625 -1.5625,-1.5625 -0.59375,-2.34375 -1.9375,-1.9375 z"
       id="reg-24"
       inkscape:label="Centre" />
    <path
       style="fill:;fill-opacity:1;fill-rule:evenodd;stroke:#7f7f7f;stroke-width:1;stroke-linecap:butt;stroke-linejoin:miter;stroke-miterlimit:4;stroke-opacity:1;stroke-dasharray:none;display:inline"
       d="m 318.4375,157.34375 -1.75,1.34375 -7.625,-0.375 -3.5,1.75 -1.375,2.9375 1.5625,1.75 -2.34375,2.75 -1.78125,2.125 3.53125,3.34375 0.96875,3.125 2.5625,2.71875 0,3.53125 -5.09375,4.28125 1.75,1.96875 -0.375,2.90625 -2.75,1.96875 -3.90625,0 0.59375,2.15625 2.53125,3.5 0.59375,3.125 0.59375,2.15625 -3.90625,1.15625 0.1875,1.96875 2.34375,2.71875 0,3.71875 -1.75,2.53125 0.5625,2.34375 3.53125,2.75 0.1875,2.71875 1.96875,4.125 -0.40625,4.6875 2.15625,2.125 -0.59375,5.09375 -0.1875,2.53125 0.96875,1.75 -1.5,4.78125 0.125,1.46875 3.34375,1.5625 L 312,255 l 2.125,-1.1875 1.96875,-1.15625 0.40625,1.75 2.90625,0 0.78125,-1.5625 1.75,0.78125 0.59375,2.53125 1.5625,-0.375 3.71875,-5.09375 1.9375,1.375 3.9375,7.40625 0,2.9375 0.96875,1.1875 3.3125,0 1.15625,1.5625 3.125,0 1.375,1.9375 -0.1875,7.625 -4.09375,3.125 -0.0937,0.21875 0.28125,-0.0313 0.59375,0.1875 0.1875,3.125 2.9375,0.59375 0.375,1.375 1.5625,0 2.34375,-1.375 6.25,0.96875 1.1875,1.1875 1.5625,-1.5625 2.15625,0 1.15625,-6.25 0.78125,-0.59375 1.9375,0 2.375,1.5625 1.75,-1.5625 1.15625,1.5625 1.78125,-1.75 2.125,-0.1875 1,3.125 0.75,3.90625 1.375,0.1875 1.1875,-2.75 3.6875,-14.4375 1.375,-2.53125 2.15625,-0.21875 2.15625,1.78125 1.5625,-0.40625 1.9375,-1.375 1.96875,0.40625 1.15625,2.53125 1.125,0.4375 5.125,-0.625 1.96875,-1.5625 -0.78125,-1.1875 -2.34375,-0.78125 -0.21875,-2.71875 1.96875,-1.375 0.78125,-3.3125 -1.75,-3.125 -1.1875,-1.5625 0.59375,-0.59375 0,-1.9375 -1.5625,-1 -0.40625,-1.5625 4.5,-0.5625 0.40625,-1.5625 -1.375,0 -1.15625,-1.375 -2.15625,0 -1.78125,-2.9375 L 392.25,238 l 0.21875,-2.53125 1.34375,-0.78125 -0.1875,-1 -0.375,-1.15625 0.96875,-1.5625 3.3125,-1.5625 0,-1.5625 1.1875,-1.5625 1.15625,-1.5625 -0.375,-1.375 0.5625,-2.15625 0.40625,-3.125 0.78125,0 -0.1875,-1.15625 -0.78125,-0.78125 -0.21875,-3.90625 -1.75,-0.1875 -0.375,-3.125 -2.15625,-1 0.78125,-0.96875 1.1875,-0.375 2.53125,-2.9375 -0.21875,-1.5625 -1.5625,-3.125 -2.3125,-0.40625 -0.8125,1.96875 -4.28125,0.96875 -0.40625,-0.96875 -3.125,-3.90625 -1.75,0.96875 -2.34375,-0.1875 -0.78125,-1.5625 -3.125,0.1875 -0.1875,-3.3125 -1.75,-1.1875 2.53125,-2.71875 -4.5,-6.0625 -3.5,-3.71875 -3.125,-1.75 -5.65625,0 -0.40625,2.53125 -2.53125,1.375 -6.4375,0.1875 -1,2.15625 -1.375,-0.1875 -1.15625,-2.15625 -3.90625,1.96875 -7.8125,-0.40625 -0.96875,-2.15625 -2.15625,-2.90625 -0.375,-3.53125 -3.125,-3.71875 -1.96875,1.375 -3.53125,-2.71875 0.59375,-5.28125 -5.0625,-5.28125 -2.34375,0 -1.375,-1.15625 z"
       id="reg-26"
       inkscape:label="Bourgogne" />
    <path
       style="fill:;fill-opacity:1;fill-rule:evenodd;stroke:#7f7f7f;stroke-width:1;stroke-linecap:butt;stroke-linejoin:miter;stroke-miterlimit:4;stroke-opacity:1;stroke-dasharray:none;display:inline"
       d="m 423.5,175.5 -3.6875,0.59375 -0.59375,1.9375 -1.96875,1.375 -1.34375,-1.5625 -0.96875,0.59375 0.75,1.15625 -1.9375,1.1875 0.59375,1.5625 -2.15625,0.78125 0,2.53125 -2.75,0 -0.1875,1.5625 -2.71875,0.59375 0.1875,2.34375 1.75,0.1875 L 407.5,191.5 l -0.59375,3.90625 -1.75,0 -2.9375,1.1875 -3.125,-1.1875 -2.71875,1.1875 0,1.96875 2.125,0.375 1.5625,3.125 0.21875,1.5625 -2.53125,2.9375 -1.1875,0.375 -0.78125,0.96875 2.15625,1 0.375,3.125 1.75,0.1875 0.21875,3.90625 0.78125,0.78125 0.1875,1.15625 -0.78125,0 -0.40625,3.125 -0.5625,2.15625 0.375,1.375 -1.15625,1.5625 -1.1875,1.5625 0,1.5625 -3.3125,1.5625 -0.96875,1.5625 0.375,1.15625 0.1875,1 -1.34375,0.78125 L 392.25,238 l 1.5625,0.1875 1.78125,2.9375 2.15625,0 1.15625,1.375 1.375,0 -0.40625,1.5625 -4.5,0.5625 0.40625,1.5625 1.5625,1 0,1.9375 -0.59375,0.59375 1.1875,1.5625 1.75,3.125 -0.78125,3.3125 -1.96875,1.375 0.21875,2.71875 2.34375,0.78125 0.78125,1.1875 -1.96875,1.5625 -5.125,0.625 2.40625,0.9375 3.90625,5.46875 2.53125,1.15625 0,2.75 2.9375,-0.40625 3.71875,-4.09375 3.125,1.5625 0,2.34375 5.65625,0 8.125,-8.9375 -0.34375,-0.1875 0.375,-4.09375 2.9375,-3.5 -1.96875,-0.78125 0.21875,-1.375 12.09375,-11.34375 -0.375,-9.375 4.28125,-2.125 2.9375,-1.375 2.71875,-2.53125 0.21875,-3.71875 2.71875,-1.375 6.25,-7.21875 -0.96875,-2.34375 2.15625,-0.96875 2.53125,-3.125 -1.375,-1.375 -4.6875,0.96875 -0.1875,-0.78125 5.0625,-5.84375 2.59375,-0.40625 -0.96875,-4.15625 -0.59375,-2.15625 -2.75,0.40625 -0.375,-2.34375 0.96875,-1.78125 0.1875,-2.34375 -0.5625,-1.34375 -3.53125,-2.75 -3.125,-0.1875 -0.78125,-1.5625 -6.25,-3.3125 -1.75,-1.96875 -1.75,-1.15625 -1.5625,0.78125 -0.21875,1.15625 -1.5625,0.96875 -0.96875,0 -2.9375,-3.3125 -4.09375,0 -1.75,1.375 -1.5625,0.1875 -2.53125,-1.9375 0.1875,-2.15625 -1,-0.78125 z"
       id="reg-43"
       inkscape:label="Franche-Comté" />
    <path
       style="fill:;fill-opacity:1;fill-rule:evenodd;stroke:#7f7f7f;stroke-width:1;stroke-linecap:butt;stroke-linejoin:miter;stroke-miterlimit:4;stroke-opacity:1;stroke-dasharray:none;display:inline"
       d="M 480.71875,112.28125 477,113.3125 l -1.71875,3 0,2.9375 -1.5625,1.375 -1.375,0 -2.53125,-1.78125 -1.96875,1.375 -2.34375,0 -1.9375,-1.9375 -3.71875,-0.59375 -2.15625,-0.96875 -0.78125,-2.9375 -1.75,1.9375 -0.96875,4.5 -2.5625,0.78125 0,2.53125 2.5625,1.1875 1.9375,1.375 -0.78125,1.75 1.78125,1.15625 3.125,-2.34375 5.4375,3.125 -2.3125,4.3125 0.1875,1.375 1.5625,1.5625 -1.1875,4.09375 -3.90625,3.90625 -2.15625,-0.1875 1.375,1.34375 -0.78125,3.53125 L 459.25,155 l 3.71875,0.96875 -2.15625,4.875 -2.34375,4.6875 0.59375,2.9375 -1.9375,4.5 -3.34375,2.90625 -0.1875,7.625 -2.4375,2.09375 0.0937,0.0625 0.78125,1.5625 3.125,0.1875 3.53125,2.75 0.5625,1.34375 -0.1875,2.34375 -0.96875,1.78125 0.375,2.34375 2.75,-0.40625 0.59375,2.15625 0.96875,4.15625 2.3125,-0.375 -0.40625,2.125 1.375,1.1875 7.21875,-0.1875 3.71875,-2.9375 0.1875,-4.3125 1.96875,-2.53125 -2.5625,-2.9375 -1.34375,-3.125 1.5625,-2.125 0,-4.90625 0.96875,-2.34375 0,-3.90625 1.75,-2.53125 -1.9375,-2.71875 -0.21875,-6.25 5.09375,-9.96875 -0.59375,-5.65625 2.34375,-7.625 0.59375,-6.65625 5.0625,-3.6875 0,-2.34375 1.96875,-2.5625 1.5625,0 1.75,-1.75 -0.375,-3.3125 1.75,-4.6875 2.71875,-0.59375 L 496.5312,115 l -4.875,-0.5625 -4.3125,-2.15625 -2.9375,1.75 -1.5625,-1.75 -2.125,0 z"
       id="reg-42"
       inkscape:label="Alsace" />
    <path
       style="fill:;fill-opacity:1;fill-rule:evenodd;stroke:#7f7f7f;stroke-width:1;stroke-linecap:butt;stroke-linejoin:miter;stroke-miterlimit:4;stroke-opacity:1;stroke-dasharray:none;display:inline"
       d="m 390.125,86.53125 -1.375,2.25 -1.75,1.15625 -1.375,-1.34375 -2.9375,0 -0.5625,-0.78125 -1.96875,3.6875 -0.78125,1.375 2.34375,2.9375 -0.78125,3.90625 -2.15625,1.75 0.21875,1.375 0.75,1.9375 -1.15625,1.1875 -2.34375,1.15625 0.375,2.15625 1,0.1875 -1.75,1.5625 1.34375,2.9375 1.375,4.3125 -1.75,1.9375 3.125,-0.1875 -1.5625,4.875 -2.15625,0.96875 -1.1875,2.9375 1.1875,0.96875 -1.375,2.34375 0.40625,1.5625 3.71875,2.9375 0.1875,6.84375 4.09375,0.59375 2.53125,2.71875 4.6875,2.34375 1.75,0.59375 4.125,4.5 -1.75,1.75 1.34375,1.9375 3.125,0.21875 2.75,3.6875 2.34375,0 0.5625,2.5625 2.5625,0.375 0.5625,1.75 -1.75,1.1875 -1.15625,5.28125 5.46875,2.71875 0,4.09375 2.125,-0.78125 1.78125,1.40625 1.34375,-0.8125 -0.75,-1.15625 0.96875,-0.59375 1.34375,1.5625 1.96875,-1.375 0.59375,-1.9375 3.6875,-0.59375 1,0.78125 -0.1875,2.15625 2.53125,1.9375 1.5625,-0.1875 1.75,-1.375 4.09375,0 2.9375,3.3125 0.96875,0 1.5625,-0.96875 0.21875,-1.15625 1.5625,-0.78125 1.75,1.15625 1.75,1.96875 6.15625,3.25 2.4375,-2.09375 0.1875,-7.625 3.34375,-2.90625 1.9375,-4.5 -0.59375,-2.9375 2.34375,-4.6875 2.15625,-4.875 L 459.25,155 l -0.78125,-5.28125 0.78125,-3.53125 -1.375,-1.34375 2.15625,0.1875 3.90625,-3.90625 1.1875,-4.09375 -1.5625,-1.5625 -0.1875,-1.375 2.3125,-4.3125 -5.4375,-3.125 -3.125,2.34375 -1.78125,-1.15625 0.78125,-1.75 -1.9375,-1.375 -2.5625,-1.1875 0,-2.53125 2.5625,-0.78125 0.96875,-4.5 1.75,-1.9375 0.78125,2.9375 2.15625,0.96875 3.71875,0.59375 1.9375,1.9375 2.34375,0 1.96875,-1.375 2.53125,1.78125 1.375,0 1.5625,-1.375 0,-2.9375 1.71875,-3 -0.40625,0.125 -1.34375,-1.9375 -3.90625,-2.34375 -1.375,-2.15625 -4.6875,0.40625 -2.75,2.53125 -6.625,0.1875 -1.96875,-1.375 c -0.13199,-0.23943 -1.09313,-1.93562 -1.9375,-2.40625 -0.0327,-0.0174 -0.0865,-0.0457 -0.125,-0.0625 -0.0285,-0.0117 -0.0699,-0.0243 -0.0937,-0.0313 -0.0107,-0.005 -0.0512,-0.0255 -0.0625,-0.0313 -0.003,1e-5 -0.0278,-1.4e-4 -0.0313,0 -0.025,-10e-4 -0.0737,0 -0.0937,0 -0.91552,1e-5 -2.6881,-1.0275 -2.90625,-1.15625 l -2.75,1.15625 -0.1875,2.34375 -3.3125,0.40625 -1.96875,-3.71875 -1.15625,-0.40625 0,-2.71875 -2.75,-1.1875 -0.1875,-4.6875 -1.96875,-1.9375 -4.09375,-1.96875 -1.9375,0 -0.59375,0.40625 -1.96875,0 -2.71875,-2.34375 -2.9375,0.1875 -2.34375,1.96875 -0.59375,0.96875 -3.3125,0 -1.15625,-1.1875 -3.125,0 -3.53125,-3.90625 -4.5,0 -2.34375,2.15625 -3.3125,0.1875 -1.15625,1.1875 -1.1875,0 -0.7813,-3.71865 -1.5625,-1.5625 -1.125,-0.15625 z"
       id="reg-41"
       inkscape:label="Lorraine" />
    <path
       style="fill:;fill-opacity:1;fill-rule:evenodd;stroke:#7f7f7f;stroke-width:1;stroke-linecap:butt;stroke-linejoin:miter;stroke-miterlimit:4;stroke-opacity:1;stroke-dasharray:none;display:inline"
       d="m 367.625,55.84375 -1.96875,2.90625 -1.75,1.78125 0,1.75 0,2.34375 -2.34375,1.5625 -4.28125,1.375 -2.34375,0.96875 -2.75,-2.15625 -3.71875,0 -0.53125,3.46875 1.75,3.3125 -1.75,1.5625 -0.1875,2.9375 0.96875,1.5625 -0.78125,2.34375 -2.9375,1.5625 0,2.53125 -3.71875,0.78125 -0.59375,1.5625 2.5625,1.375 -0.78125,2.71875 -0.59375,2.34375 0.1875,6.65625 -1.375,0.375 -3.3125,-2.15625 -2.34375,1 0.40625,1.9375 -4.125,0 -3.6875,2.75 0,5.25 2.71875,1.78125 0.78125,1.75 -4.5,0.375 -0.5625,1.78125 1.75,1.15625 -0.78125,1.1875 -1.75,0.78125 0.375,1.34375 2.53125,0 1,1.375 -1.75,1.1875 -1.5625,4.09375 -2.9375,1.375 -1,2.125 -0.96875,1.1875 0.21875,1.15625 -1.5625,1 -0.40625,2.71875 1.5625,0.96875 0.78125,2.9375 -0.96875,1.75 0.59375,1.375 2.90625,-0.1875 0,1.5625 -2.71875,1.15625 -0.1875,2.34375 -1.375,1.78125 -0.78125,3.90625 -0.4375,3.28125 1.21875,1 2.34375,0 5.0625,5.28125 -0.59375,5.28125 3.53125,2.71875 1.96875,-1.375 3.125,3.71875 0.375,3.53125 2.15625,2.90625 0.96875,2.15625 7.8125,0.40625 3.90625,-1.96875 1.15625,2.15625 1.375,0.1875 1,-2.15625 6.4375,-0.1875 2.53125,-1.375 0.40625,-2.53125 5.65625,0 3.125,1.75 3.5,3.71875 4.5,6.0625 -2.53125,2.71875 1.75,1.1875 0.1875,3.3125 3.125,-0.1875 0.78125,1.5625 2.34375,0.1875 1.75,-0.96875 3.125,3.90625 0.40625,0.96875 4.28125,-0.96875 0.8125,-1.96875 0.1875,0.0313 0,-1.96875 2.71875,-1.1875 3.125,1.1875 2.9375,-1.1875 1.75,0 0.59375,-3.9063 0.96875,-1.15625 -1.75,-0.1875 -0.1875,-2.34375 2.71875,-0.59375 0.1875,-1.5625 2.75,0 0,-2.53125 2.15625,-0.78125 -0.59375,-1.5625 0.59375,-0.375 L 412.5625,179 l -2.125,0.78125 0,-4.09375 -5.46875,-2.71875 1.15625,-5.28125 1.75,-1.1875 -0.5625,-1.75 -2.5625,-0.375 -0.5625,-2.5625 -2.34375,0 -2.75,-3.6875 -3.125,-0.21875 -1.34375,-1.9375 1.75,-1.75 -4.125,-4.5 -1.75,-0.59375 -4.6875,-2.34375 -2.53125,-2.71875 -4.09375,-0.59375 L 379,136.625 l -3.71875,-2.9375 -0.40625,-1.5625 1.375,-2.34375 -1.1875,-0.96875 1.1875,-2.9375 2.15625,-0.96875 1.5625,-4.875 -3.125,0.1875 1.75,-1.9375 -1.375,-4.3125 -1.34375,-2.9375 1.75,-1.5625 -1,-0.1875 -0.375,-2.15625 2.34375,-1.15625 1.15625,-1.1875 -0.75,-1.9375 -0.21875,-1.375 2.15625,-1.75 0.78125,-3.90625 -2.34375,-2.9375 0.78125,-1.375 1.96875,-3.6875 0.5625,0.78125 2.9375,0 1.375,1.34375 1.75,-1.15625 1.375,-2.25 -1.40625,-0.21875 -0.78125,-3.90625 -1.5625,-1.1875 -5.46875,-0.59375 -0.96875,-2.53125 -1.78125,-1.15625 -6.25,-0.78125 -0.375,-4.5 0.78125,-0.78125 0,-1.75 -3.125,-1.96875 0.59375,-2.15625 0.78125,-1.9375 -1.375,-1.1875 2.15625,-1.9375 0,-3.53125 -0.78125,-0.5625 -2.9375,0 z"
       id="reg-21"
       inkscape:label="Champagne-Ardenne" />
    <path
       style="fill:;fill-opacity:1;fill-rule:evenodd;stroke:#7f7f7f;stroke-width:1;stroke-linecap:butt;stroke-linejoin:miter;stroke-miterlimit:4;stroke-opacity:1;stroke-dasharray:none;display:inline"
       d="M 255.5625,109.6875 254,111.625 l -1.1875,4.3125 -1.375,2.34375 -5.46875,1.5625 -0.78125,0.96875 1,1.5625 0,1.5625 1.75,0.375 -1,1 0.0937,0.875 0.125,-0.0937 1.9375,1.9375 0.59375,2.34375 1.5625,1.5625 -0.78125,2.15625 0,1.9375 1.375,1.5625 -1.375,2.34375 1.375,3.34375 2.71875,1.9375 0.40625,2.15625 2.34375,0.375 0.5625,4.3125 1.78125,2.15625 4.0938,0.7812 0.375,2.53125 0.40625,0.59375 0.40625,5.25 6.25,-0.5625 2.53125,-2.34375 2.15625,1.75 5.25,0.375 1.96875,2.9375 2.34375,1.1875 0.1875,3.3125 -3.125,2.15625 1.75,1.5625 2.15625,-1.375 5.28125,0.1875 1.9375,-0.375 0.59375,-1.5625 2.15625,0.1875 0.375,1.5625 4.875,-2.75 1.78125,-2.125 2.34375,-2.75 -1.5625,-1.75 1.375,-2.9375 3.5,-1.75 7.625,0.375 1.75,-1.34375 0.15625,0.15625 0.4375,-3.28125 0.78125,-3.90625 1.375,-1.78125 0.1875,-2.34375 2.71875,-1.15625 0,-1.5625 -2.90625,0.1875 -0.59375,-1.375 0.96875,-1.75 -0.78125,-2.9375 -1.5625,-0.96875 0.40625,-2.71875 1.5625,-1 -0.21875,-1.15625 0.5625,-0.6875 -3.28125,-0.6875 -1,-2.34375 -1.75,-0.59375 -5.25,-5.0625 -0.59375,-4.3125 L 307.5,116.5 l -1.1875,0.59375 -1.9375,1.5625 -1.9375,-0.59375 -3.34375,1.375 -2.71875,-1.5625 -1.1875,1.5625 -1.75,0.1875 -1.1875,-0.96875 -1.9375,-1.15625 -2.34375,1.5625 -1.375,-1.375 -4.28125,-2.53125 -4.125,-2.15625 -2.125,0.96875 -2.34375,0.59375 -1.5625,-1.1875 -3.125,-1.9375 -2.53125,1.9375 -3.71875,0.40625 -5.28125,-0.40625 -1.1875,-1.9375 -0.75,-1.75 z"
       id="reg-11"
       inkscape:label="Ile-de-France" />
    <path
       style="fill:;fill-opacity:1;fill-rule:evenodd;stroke:#7f7f7f;stroke-width:1;stroke-linecap:butt;stroke-linejoin:miter;stroke-miterlimit:4;stroke-opacity:1;stroke-dasharray:none;display:inline"
       d="m 249.78125,44.5 -0.53125,6.4375 4.3125,3.90625 0,1.96875 -5.28125,-3.125 -6.34375,7.8125 1.6875,0.71875 2.15625,-0.1875 0.96875,1.9375 8.59375,8.40625 0.59375,3.5 1.9375,3.53125 -1.9375,2.34375 -0.78125,1.9375 1.5625,0 -0.78125,1.96875 -0.78125,3.90625 1.15625,1.9375 0,3.34375 1.96875,0 -0.78125,1.34375 -1.375,2.5625 -0.5625,1.75 1.75,1.5625 0.5625,4.5 1,1.5625 -1.375,0.375 -1.75,-0.96875 -0.3125,2.3125 0.125,-0.15625 0.75,1.75 1.1875,1.9375 5.28125,0.40625 3.71875,-0.40625 2.53125,-1.9375 3.125,1.9375 1.5625,1.1875 2.34375,-0.59375 2.125,-0.96875 4.125,2.15625 4.28125,2.53125 1.375,1.375 2.34375,-1.5625 1.9375,1.15625 1.1875,0.96875 1.75,-0.1875 1.1875,-1.5625 2.71875,1.5625 3.34375,-1.375 1.9375,0.59375 1.9375,-1.5625 1.1875,-0.59375 2.15625,1.5625 0.59375,4.3125 5.25,5.0625 1.75,0.59375 1,2.34375 3.28125,0.6875 0.40625,-0.5 1,-2.125 2.9375,-1.375 1.5625,-4.09375 1.75,-1.1875 -1,-1.375 -2.53125,0 -0.375,-1.34375 1.75,-0.78125 0.78125,-1.1875 -1.75,-1.15625 0.5625,-1.78125 4.5,-0.375 -0.78125,-1.75 -2.71875,-1.78125 0,-5.25 3.6875,-2.75 4.125,0 -0.40625,-1.9375 2.34375,-1 3.3125,2.15625 1.375,-0.375 -0.1875,-6.65625 0.59375,-2.34375 L 343.25,89.375 340.6875,88 341.28125,86.4375 345,85.65625 l 0,-2.53125 2.9375,-1.5625 0.78125,-2.34375 -0.96875,-1.5625 0.1875,-2.9375 1.75,-1.5625 -1.75,-3.3125 0.53125,-3.46875 -3.96875,0 -1.0625,0.71875 -3.71875,-0.96875 -0.78125,-2.53125 -1.15625,0 -2.15625,1.9375 -0.375,-1.75 -4.3125,-0.40625 -1.1875,-0.96875 -1.34375,-0.1875 -3.125,2.15625 -1.5625,-1.375 -1.375,0 -3.125,2.15625 -2.34375,-1.375 -2.34375,1.375 -0.78125,0.1875 -0.59375,-1.1875 -2.15625,0 -1.5625,1 -1.5625,-0.40625 -1.75,-1.75 -4.6875,0 -2.9375,1.5625 0,-1.375 -0.75,-1.375 -1.78125,0.78125 -2.15625,1.1875 1.1875,-1.75 -0.1875,-1.5625 -2.5625,-1.78125 0,1.96875 -1.75,0 -4.09375,-1.375 -1.75,-1.375 -1.78125,1.1875 -0.5625,1.5625 -0.78125,0.1875 -0.96875,-0.96875 0,-2.75 2.90625,-1.9375 -1.15625,-1.96875 -2.34375,1 -1.1875,-1 -4.875,0.59375 -2.53125,0.96875 -2.5625,-0.96875 0,-1.9375 -3.5,-1.5625 -0.96875,-2.34375 -1.375,0.5625 -3.71875,-2.90625 -1.75,-0.59375 -1.375,1.75 L 253.78125,47.375 252.8125,45.21875 249.78125,44.5 z"
       id="reg-22"
       inkscape:label="Picardie" />
    <path
       style="fill:;fill-opacity:1;fill-rule:evenodd;stroke:#7f7f7f;stroke-width:1;stroke-linecap:butt;stroke-linejoin:miter;stroke-miterlimit:4;stroke-opacity:1;stroke-dasharray:none;display:inline"
       d="m 241.9375,61.5 -1.28125,1.5625 -8.375,6.4375 -14.84375,3.71875 -9.78125,3.5 -8,4.3125 -4.6875,7.03125 -0.96875,5.46875 3.90625,2.9375 5.65625,1.15625 -0.90625,0.15625 0.9375,7.40625 1.96875,0.59375 0,0.78125 -1.96875,1.15625 2.34375,3.3125 1.1875,4.6875 -0.21875,1.96875 -1.75,1.15625 0.1875,1.375 1.96875,0.78125 0.1875,1.75 -1.5625,4.5 1.5625,1.96875 5.46875,0.1875 1.15625,2.71875 1.96875,1.96875 2.71875,0.96875 0.8125,2.9375 -1.375,1.9375 2.84375,1.90625 2.8125,-2.6875 2.71875,0 7.0625,-3.6875 2.3125,0.96875 4.90625,0 1.15625,-1.375 0,-2.9375 3.90625,-1.9375 0,-3.125 1.0625,-0.875 -0.0937,-0.875 1,-1 -1.75,-0.375 0,-1.5625 -1,-1.5625 0.78125,-0.96875 5.46875,-1.5625 1.375,-2.34375 1.1875,-4.3125 1.4375,-1.78125 0.3125,-2.3125 1.75,0.96875 1.375,-0.375 -1,-1.5625 -0.5625,-4.5 -1.75,-1.5625 0.5625,-1.75 1.375,-2.5625 0.78125,-1.34375 -1.96875,0 0,-3.34375 -1.15625,-1.9375 0.78125,-3.90625 0.78125,-1.96875 -1.5625,0 0.78125,-1.9375 1.9375,-2.34375 -1.9375,-3.53125 -0.59375,-3.5 -8.59375,-8.40625 -0.96875,-1.9375 -2.15625,0.1875 L 241.9375,61.5 z"
       id="reg-23"
       inkscape:label="Haute-Normandie" />
    <path
       style="fill:;fill-opacity:1;fill-rule:evenodd;stroke:#7f7f7f;stroke-width:1;stroke-linecap:butt;stroke-linejoin:miter;stroke-miterlimit:4;stroke-opacity:1;stroke-dasharray:none;display:inline"
       d="m 285.78125,4.0625 -6.25,2.9375 -9.75,1.5625 -11.34375,2.15625 -8.59375,6.625 0,26.375 -0.0625,0.78125 3.03125,0.71875 0.96875,2.15625 2.34375,-0.59375 1.375,-1.75 1.75,0.59375 3.71875,2.90625 1.375,-0.5625 0.96875,2.34375 3.5,1.5625 0,1.9375 2.5625,0.96875 2.53125,-0.96875 4.875,-0.59375 1.1875,1 2.34375,-1 1.15625,1.96875 -2.90625,1.9375 0,2.75 0.96875,0.96875 0.78125,-0.1875 0.5625,-1.5625 1.78125,-1.1875 1.75,1.375 4.09375,1.375 1.75,0 0,-1.96875 2.5625,1.78125 0.1875,1.5625 -1.1875,1.75 2.15625,-1.1875 1.78125,-0.78125 0.75,1.375 0,1.375 2.9375,-1.5625 4.6875,0 1.75,1.75 1.5625,0.40625 1.5625,-1 2.15625,0 0.59375,1.1875 0.78125,-0.1875 2.34375,-1.375 2.34375,1.375 3.125,-2.15625 1.375,0 1.5625,1.375 3.125,-2.15625 1.34375,0.1875 1.1875,0.96875 4.3125,0.40625 0.375,1.75 2.15625,-1.9375 1.15625,0 0.78125,2.53125 3.71875,0.96875 1.0625,-0.71875 -0.3125,0 -0.1875,-1.9375 3.90625,-2.34375 -0.59375,-3.71875 -3.71875,-0.96875 0.96875,-1 0,-2.71875 2.9375,-2.15625 -0.78125,-1.5625 -6.25,-4.875 -10.9375,0.59375 -1.15625,1.9375 -1.375,0 0.1875,-6.84375 -3.125,-3.6875 -2.34375,0.375 -1.375,-1.5625 -3.90625,1.75 -1.34375,-1.34375 -2.75,-0.40625 -0.78125,-2.53125 -0.1875,-7.8125 -1.75,-0.78125 -0.21875,-1.1875 -1.15625,0 -0.40625,-2.34375 -2.53125,0.21875 -4.875,1.5625 -2.34375,2.90625 -2.34375,0 -1.5625,-1.9375 -0.59375,-2.15625 -1.9375,-2.15625 -2.75,0 -1.15625,-2.125 0,-3.34375 1.34375,-2.125 -0.78125,-2.9375 -2.53125,-5.09375 z"
       id="reg-31"
       inkscape:label="Nord-Pas-de-Calais" />
    <path
       style="fill:;fill-opacity:1;fill-rule:evenodd;stroke:#7f7f7f;stroke-width:1;stroke-linecap:butt;stroke-linejoin:miter;stroke-miterlimit:4;stroke-opacity:1;stroke-dasharray:none;display:inline"
       d="m 568.92104,452.72493 -2.92969,1.95313 0.39062,1.95312 1.5625,1.95313 -1.75781,1.36719 0.78125,1.5625 -1.17187,1.36718 0,1.75782 1.95312,1.75781 0,2.73437 -1.17187,2.53907 -1.36719,0.58593 -1.5625,-2.14843 -2.73438,0.19531 -0.58593,-0.39063 -2.34375,0 -2.14844,1.95313 -0.78125,3.32031 -5.07813,0.97656 -3.90625,3.32032 -0.78125,2.14843 -1.95312,-0.19531 -0.97656,-1.17187 -0.58594,3.32031 -1.36719,0.58594 -0.39062,3.125 0.58593,1.36718 -2.14843,1.5625 -0.58594,1.5625 -1.5625,0 0,2.14844 1.95312,1.36719 3.32032,1.95312 0.19531,1.56251 -1.95313,0.58593 -3.125,0.58594 0,1.36719 1.17188,1.17187 0.19531,3.90625 4.29688,1.36719 1.5625,0.39063 1.36718,2.14843 -0.97656,1.36719 -1.5625,0.58594 -1.17187,2.14844 -1.17188,1.36718 0.58594,3.51563 2.92969,-0.19531 0.78125,0.58593 2.73437,-1.36718 0.78125,0.78125 -1.36719,2.92968 1.36719,1.36719 -2.34375,1.75781 -1.5625,3.51563 4.29688,0.97656 6.05468,0.58594 -2.53906,2.92969 c 0,0 -1.95312,-0.78125 -1.95312,0.19531 0,0.97656 -1.36719,3.32031 -1.36719,3.32031 l 1.95312,2.14844 3.51563,2.14844 6.64062,1.75781 1.95313,0.78125 1.75781,0.78125 -1.17187,2.14844 3.125,-0.19532 0.58593,1.36719 3.125,0 0.78125,-3.71094 -1.95312,-0.39062 2.73437,-2.92969 -0.97656,-0.97656 0.19531,-1.75781 3.51563,-1.95313 0.19531,-2.14844 -2.34375,-0.19531 -1.5625,1.36719 0,-1.95313 3.125,-0.19531 0.97656,-2.34375 0.78125,-6.83594 -0.58593,-2.92968 -0.19532,-8.59375 4.6875,-6.64063 0,-10.9375 -1.95312,-3.71094 -0.58594,-11.71875 -1.36719,-2.14844 -2.53906,-1.95312 -0.39062,-7.22656 1.17187,-3.32032 -1.5625,-5.27343 -0.97656,-4.29688 -0.78125,-1.17187 -1.75781,-0.97657 z"
       id="reg-94"
       inkscape:label="Corse" />
    <path
       style="fill:;fill-opacity:1;fill-rule:evenodd;stroke:#7f7f7f;stroke-width:1;stroke-linecap:butt;stroke-linejoin:miter;stroke-miterlimit:4;stroke-opacity:1;stroke-dasharray:none;display:inline"
       d="m 383.28125,262.59375 -2.15625,0.21875 -1.375,2.53125 -3.6875,14.4375 -1.1875,2.75 -1.375,-0.1875 -0.75,-3.90625 -1,-3.125 -2.125,0.1875 -1.78125,1.75 -1.15625,-1.5625 -1.75,1.5625 -2.375,-1.5625 -1.9375,0 -0.78125,0.59375 -1.15625,6.25 -2.15625,0 -1.5625,1.5625 -1.1875,-1.1875 -6.25,-0.96875 -2.34375,1.375 -1.5625,0 -0.375,-1.375 -2.9375,-0.59375 -0.1875,-3.125 -0.59375,-0.1875 L 336,278.625 l -0.5625,2.15625 1.375,2.71875 0.375,11.125 -4.6875,0.21875 -0.1875,1.75 3.125,2.53125 -1.75,1.75 -0.59375,4.3125 2.34375,3.125 2.125,5.0625 5.09375,3.34375 1.75,6.4375 -3.71875,3.5 0.59375,2.34375 5.46875,1.78125 4.3125,-3.53125 2.125,-0.1875 6.25,2.71875 -0.375,3.71875 3.125,-0.1875 2.53125,2.9375 -1.15625,4.6875 -2.75,1.15625 -1.15625,1.96875 0.78125,2.53125 0.5625,1.375 -2.90625,0 -0.21875,3.6875 -3.125,0.21875 -1.5625,4.875 -4.6875,0 -5.0625,3.71875 -2.8125,4.46875 0.46875,0.59375 1.375,7.1875 3.3125,3.59375 -0.5625,4.125 4.15625,2.5 0,5.53125 2.21875,-1.125 4.6875,3.0625 2.21875,0.8125 0.53125,-3.875 2.78125,-0.53125 0.8125,3.03125 2.78125,-0.28125 0.53125,-3.03125 6.34375,3.5625 1.03125,-2.09375 5.28125,-0.78125 1.15625,1.375 -0.5625,3.90625 0.78125,0.96875 2.90625,-2.9375 2.5625,-0.1875 0.5625,-1.5625 -3.3125,-0.40625 -0.5625,-3.5 2.125,-3.3125 2.75,-0.21875 2.71875,2.5625 -2.71875,3.6875 0.78125,1.375 3.90625,0.40625 2.53125,-2.15625 -1.375,2.9375 0.40625,2.34375 4.09375,0.375 5.46875,0.40625 0.78125,2.53125 2.9375,2.15625 2.53125,0.1875 1.75,-1.5625 1,-2.9375 1.5625,1.375 1.15625,1.375 0.78125,-7.25 -1.9375,-0.375 -1.1875,-2.53125 -6.625,-1.78125 -0.8125,-3.3125 2.375,-1.5625 -1.96875,-1.375 0.40625,-1.75 3.125,0.1875 2.71875,1.375 2.15625,-2.53125 -2.15625,-1.75 0.1875,-2.34375 1.1875,-3.71875 4.09375,-0.40625 3.3125,-1.34375 0.59375,-1.375 -1.5625,-0.78125 0,-2.34375 4.875,0 1.5625,-1.5625 -0.96875,-1.75 2.53125,-1.96875 1.78125,0.78125 2.53125,-2.15625 4.46875,0.78125 1.5625,-1.75 3.71875,0.1875 0,-4.28125 -1.5625,-0.78125 -0.78125,-2.53125 L 434.84375,346 434.25,345.03125 l 0.78125,-4.09375 1.375,-1.1875 3.53125,-0.375 1.15625,1.15625 0.59375,2.75 3.5,-0.40625 0.40625,-2.9375 1.75,-0.78125 3.75,0.1875 -0.0625,-0.125 5.84375,-2.34375 2.15625,1.375 2.15625,0 0.1875,-2.34375 2.53125,-1.375 0.96875,-1.15625 5.09375,-1.96875 0.59375,-3.3125 -1,-1.5625 2.75,-4.6875 L 469.78125,320.875 469,318.125 463.71875,315 c 0,0 0.31502,-5.98725 -0.1875,-7.0625 -0.0158,-0.0269 -0.0497,-0.0773 -0.0625,-0.0937 -0.005,-0.005 -0.0261,-0.0266 -0.0313,-0.0313 -0.004,2.2e-4 -0.0284,-7e-5 -0.0313,0 -5e-5,-0.007 -1.7e-4,-0.0294 0,-0.0313 -0.004,1.2e-4 -0.0284,-4e-5 -0.0313,0 -0.003,-1.5e-4 -0.0283,-7e-5 -0.0313,0 -0.004,-8e-5 -0.0284,10e-6 -0.0313,0 -0.78125,0.19532 -3.6875,0.40625 -3.6875,0.40625 l -2.9375,-3.34375 0.1875,-6.625 6.65625,-2.75 0.78125,-1.9375 -0.40625,-4.3125 -4.28125,-4.46875 -1.375,0.78125 0,-1.78125 0,-2.90625 -3.71875,-1.78125 -0.1875,-1.5625 2.15625,-2.34375 0,-2.71875 -3.53125,-3.71875 -0.1875,-2.53125 -6.65625,0 -4.46875,0.78125 -4.3125,3.5 -1.15625,-1.75 -2.15625,0.1875 -1.96875,4.3125 0.21875,1.75 2.125,1.75 -3.90625,2.5625 -2.53125,2.34375 -6.4375,0 0,-3.71875 2.34375,-1.375 3.5,-0.375 0.21875,-1.96875 -1.1875,-0.78125 2.9375,-3.71875 -0.40625,-1.15625 -3.34375,-1.78125 -8.125,8.9375 -5.65625,0 0,-2.34375 -3.125,-1.5625 -3.71875,4.09375 -2.9375,0.40625 0,-2.75 -2.53125,-1.15625 -3.90625,-5.46875 -3.53125,-1.375 -1.15625,-2.53125 -1.96875,-0.40625 -1.9375,1.375 -1.5625,0.40625 -2.15625,-1.78125 z"
       id="reg-82"
       inkscape:label="Rhône-Alpes" />
  </g>
  
  
  
  <g
     inkscape:groupmode="layer"
     id="layer8"
     inkscape:label="Region (légende)"
     style="display:inline"
     sodipodi:insensitive="true">
    <text
       xml:space="preserve"
       style="font-size:20px;font-style:normal;font-variant:normal;font-weight:normal;font-stretch:normal;text-align:start;line-height:125%;text-anchor:start;fill:#FFFFFF;fill-opacity:1;stroke:none;font-family:Bitstream Vera Sans"
       x="128.90601"
       y="389.08099"
       id="text9682"
       sodipodi:linespacing="125%"><tspan
         sodipodi:role="line"
         id="tspan9684"
         x="128.90601"
         y="389.08099" /></text>
    <text
       xml:space="preserve"
       style="font-size:12px;font-style:italic;font-variant:normal;font-weight:bold;font-stretch:normal;text-align:center;line-height:100%;text-anchor:middle;fill:#FFFFFF;fill-opacity:1;stroke:none;display:inline;font-family:Serif"
       x="182.38411"
       y="279.45053"
       id="text9678"
       sodipodi:linespacing="100%"><tspan
         sodipodi:role="line"
         id="tspan9680"
         x="182.38411"
         y="279.45053"
         style="font-size:12px;font-style:italic;font-variant:normal;font-weight:bold;font-stretch:normal;text-align:center;line-height:100%;text-anchor:middle;font-family:Serif">Poitou-</tspan><tspan
         sodipodi:role="line"
         x="182.38411"
         y="291.45053"
         style="font-size:12px;font-style:italic;font-variant:normal;font-weight:bold;font-stretch:normal;text-align:center;line-height:100%;text-anchor:middle;font-family:Serif"
         id="tspan9800">Charentes</tspan></text>
    <text
       xml:space="preserve"
       style="font-size:12px;font-style:italic;font-variant:normal;font-weight:bold;font-stretch:normal;text-align:start;line-height:100%;text-anchor:start;fill:#FFFFFF;fill-opacity:1;stroke:none;display:inline;font-family:Serif"
       x="145.5358"
       y="373.21939"
       id="text9692"
       sodipodi:linespacing="100%"><tspan
         sodipodi:role="line"
         id="tspan9694"
         x="145.5358"
         y="373.21939"
         style="font-size:12px;font-style:italic;font-variant:normal;font-weight:bold;font-stretch:normal;text-align:start;line-height:100%;text-anchor:start;font-family:Serif">Aquitaine</tspan></text>
    <text
       xml:space="preserve"
       style="font-size:12px;font-style:italic;font-variant:normal;font-weight:bold;font-stretch:normal;text-align:start;line-height:100%;text-anchor:start;fill:#FFFFFF;fill-opacity:1;stroke:none;display:inline;font-family:Serif"
       x="197.379"
       y="419.31537"
       id="text9700"
       sodipodi:linespacing="100%"><tspan
         sodipodi:role="line"
         id="tspan9702"
         x="197.379"
         y="419.31537"
         style="font-size:12px;font-style:italic;font-variant:normal;font-weight:bold;font-stretch:normal;text-align:start;line-height:100%;text-anchor:start;font-family:Serif">Midi-Pyrénées</tspan></text>
    <text
       xml:space="preserve"
       style="font-size:20px;font-style:normal;font-variant:normal;font-weight:normal;font-stretch:normal;text-align:start;line-height:125%;text-anchor:start;fill:#FFFFFF;fill-opacity:1;stroke:none;font-family:Bitstream Vera Sans"
       x="141.40601"
       y="460.17499"
       id="text9704"
       sodipodi:linespacing="125%"><tspan
         sodipodi:role="line"
         id="tspan9706"
         x="141.40601"
         y="460.17499" /></text>
    <text
       xml:space="preserve"
       style="font-size:12px;font-style:italic;font-variant:normal;font-weight:bold;font-stretch:normal;text-align:center;line-height:100%;text-anchor:middle;fill:#FFFFFF;fill-opacity:1;stroke:none;display:inline;font-family:Serif"
       x="322.73053"
       y="436.82129"
       id="text9716"
       sodipodi:linespacing="100%"><tspan
         sodipodi:role="line"
         id="tspan9718"
         x="347.73053"
         y="403.82129"
         style="font-size:10px;font-style:italic;font-variant:normal;font-weight:bold;font-stretch:normal;text-align:center;line-height:100%;text-anchor:middle;font-family:Serif">Languedoc-</tspan><tspan
         sodipodi:role="line"
         x="347.73053"
         y="416.82129"
         style="font-size:10px;font-style:italic;font-variant:normal;font-weight:bold;font-stretch:normal;text-align:center;line-height:100%;text-anchor:middle;font-family:Serif"
         id="tspan9806">Roussillon</tspan></text>
    <text
       xml:space="preserve"
       style="font-size:12px;font-style:italic;font-variant:normal;font-weight:bold;font-stretch:normal;text-align:center;line-height:100%;text-anchor:middle;fill:#FFFFFF;fill-opacity:1;stroke:none;display:inline;font-family:Serif"
       x="432.73828"
       y="407.86649"
       id="text9720"
       sodipodi:linespacing="100%"><tspan
         sodipodi:role="line"
         x="432.73828"
         y="412.86649"
         style="font-size:12px;font-style:italic;font-variant:normal;font-weight:bold;font-stretch:normal;text-align:center;line-height:100%;text-anchor:middle;font-family:Serif"
         id="tspan9804">Provence-</tspan><tspan
         sodipodi:role="line"
         x="432.73828"
         y="424.86649"
         style="font-size:12px;font-style:italic;font-variant:normal;font-weight:bold;font-stretch:normal;text-align:center;line-height:100%;text-anchor:middle;font-family:Serif"
         id="tspan3589">Alpes-</tspan><tspan
         sodipodi:role="line"
         x="432.73828"
         y="436.86649"
         style="font-size:12px;font-style:italic;font-variant:normal;font-weight:bold;font-stretch:normal;text-align:center;line-height:100%;text-anchor:middle;font-family:Serif"
         id="tspan3585">Côte d'Azur</tspan></text>
    <text
       xml:space="preserve"
       style="font-size:12px;font-style:italic;font-variant:normal;font-weight:bold;font-stretch:normal;text-align:start;line-height:100%;text-anchor:start;fill:#FFFFFF;fill-opacity:1;stroke:none;display:inline;font-family:Serif"
       x="364.3317"
       y="320.9863"
       id="text9724"
       sodipodi:linespacing="100%"><tspan
         sodipodi:role="line"
         id="tspan9726"
         x="364.3317"
         y="320.9863"
         style="font-size:12px;font-style:italic;font-variant:normal;font-weight:bold;font-stretch:normal;text-align:start;line-height:100%;text-anchor:start;font-family:Serif">Rhône-Alpes</tspan></text>
    <text
       xml:space="preserve"
       style="font-size:12px;font-style:italic;font-variant:normal;font-weight:bold;font-stretch:normal;text-align:start;line-height:100%;text-anchor:start;fill:#FFFFFF;fill-opacity:1;stroke:none;display:inline;font-family:Serif"
       x="284.00299"
       y="324.64801"
       id="text9728"
       sodipodi:linespacing="100%"><tspan
         sodipodi:role="line"
         id="tspan9730"
         x="284.00299"
         y="324.64801"
         style="font-size:12px;font-style:italic;font-variant:normal;font-weight:bold;font-stretch:normal;text-align:start;line-height:100%;text-anchor:start;font-family:Serif">Auvergne</tspan></text>
    <text
       xml:space="preserve"
       style="font-size:12px;font-style:italic;font-variant:normal;font-weight:bold;font-stretch:normal;text-align:start;line-height:100%;text-anchor:start;fill:#FFFFFF;fill-opacity:1;stroke:none;display:inline;font-family:Serif"
       x="313.50739"
       y="226.93872"
       id="text9732"
       sodipodi:linespacing="100%"><tspan
         sodipodi:role="line"
         id="tspan9734"
         x="313.50739"
         y="226.93872"
         style="font-size:12px;font-style:italic;font-variant:normal;font-weight:bold;font-stretch:normal;text-align:start;line-height:100%;text-anchor:start;font-family:Serif">Bourgogne</tspan></text>
    <text
       xml:space="preserve"
       style="font-size:12px;font-style:italic;font-variant:normal;font-weight:bold;font-stretch:normal;text-align:center;line-height:100%;text-anchor:middle;fill:#FFFFFF;fill-opacity:1;stroke:none;display:inline;font-family:Serif"
       x="427.73679"
       y="216.27156"
       id="text9736"
       sodipodi:linespacing="100%"><tspan
         sodipodi:role="line"
         x="427.73679"
         y="216.27156"
         style="font-size:12px;font-style:italic;font-variant:normal;font-weight:bold;font-stretch:normal;text-align:center;line-height:100%;text-anchor:middle;font-family:Serif"
         id="tspan9740">Franche-</tspan><tspan
         sodipodi:role="line"
         x="427.73679"
         y="228.27156"
         style="font-size:12px;font-style:italic;font-variant:normal;font-weight:bold;font-stretch:normal;text-align:center;line-height:100%;text-anchor:middle;font-family:Serif"
         id="tspan9808">Comté</tspan></text>
    <text
       xml:space="preserve"
       style="font-size:12px;font-style:italic;font-variant:normal;font-weight:bold;font-stretch:normal;text-align:start;line-height:100%;text-anchor:start;fill:#FFFFFF;fill-opacity:1;stroke:none;display:inline;font-family:Serif"
       x="456.99399"
       y="154.856"
       id="text9744"
       sodipodi:linespacing="100%"><tspan
         sodipodi:role="line"
         id="tspan9746"
         x="459.99399"
         y="154.856"
         style="font-size:8px;font-style:italic;font-variant:normal;font-weight:bold;font-stretch:normal;text-align:start;line-height:100%;text-anchor:start;font-family:Serif">Alsace</tspan></text>
    <text
       xml:space="preserve"
       style="font-size:12px;font-style:italic;font-variant:normal;font-weight:bold;font-stretch:normal;text-align:start;line-height:100%;text-anchor:start;fill:#FFFFFF;fill-opacity:1;stroke:none;display:inline;font-family:Serif"
       x="386.35068"
       y="123.58474"
       id="text9748"
       sodipodi:linespacing="100%"><tspan
         sodipodi:role="line"
         id="tspan9750"
         x="396.35068"
         y="123.58474"
         style="font-size:12px;font-style:italic;font-variant:normal;font-weight:bold;font-stretch:normal;text-align:start;line-height:100%;text-anchor:start;font-family:Serif">Lorraine</tspan></text>
    <text
       xml:space="preserve"
       style="font-size:12px;font-style:italic;font-variant:normal;font-weight:bold;font-stretch:normal;text-align:center;line-height:100%;text-anchor:middle;fill:#FFFFFF;fill-opacity:1;stroke:none;display:inline;font-family:Serif"
       x="358.59"
       y="145.136"
       id="text9752"
       sodipodi:linespacing="100%"><tspan
         sodipodi:role="line"
         id="tspan9754"
         x="354.59"
         y="145.136"
         style="font-size:11px;font-style:italic;font-variant:normal;font-weight:bold;font-stretch:normal;text-align:center;line-height:100%;text-anchor:middle;font-family:Serif">Champagne-</tspan><tspan
         sodipodi:role="line"
         x="354.59"
         y="157.136"
         style="font-size:12px;font-style:italic;font-variant:normal;font-weight:bold;font-stretch:normal;text-align:center;line-height:100%;text-anchor:middle;font-family:Serif"
         id="tspan9820">Ardenne</tspan></text>
    <text
       xml:space="preserve"
       style="font-size:11px;font-style:italic;font-variant:normal;font-weight:bold;font-stretch:normal;text-align:center;line-height:100%;text-anchor:middle;fill:#FFFFFF;fill-opacity:1;stroke:none;display:inline;font-family:Serif"
       x="283.81259"
       y="141.78557"
       id="text9756"
       sodipodi:linespacing="100%"><tspan
         sodipodi:role="line"
         x="283.81259"
         y="141.78557"
         style="font-size:12px;font-style:italic;font-variant:normal;font-weight:bold;font-stretch:normal;text-align:center;line-height:100%;text-anchor:middle;font-family:Serif"
         id="tspan23714">Île-de-</tspan><tspan
         sodipodi:role="line"
         x="283.81259"
         y="153.78557"
         style="font-size:12px;font-style:italic;font-variant:normal;font-weight:bold;font-stretch:normal;text-align:center;line-height:100%;text-anchor:middle;font-family:Serif"
         id="tspan2953">France</tspan></text>
    <text
       xml:space="preserve"
       style="font-size:12px;font-style:italic;font-variant:normal;font-weight:bold;font-stretch:normal;text-align:start;line-height:100%;text-anchor:start;fill:#FFFFFF;fill-opacity:1;stroke:none;display:inline;font-family:Serif"
       x="264.73901"
       y="88.714203"
       id="text9760"
       sodipodi:linespacing="100%"><tspan
         sodipodi:role="line"
         id="tspan9762"
         x="274.73901"
         y="90.714203"
         style="font-size:12px;font-style:italic;font-variant:normal;font-weight:bold;font-stretch:normal;text-align:start;line-height:100%;text-anchor:start;font-family:Serif">Picardie</tspan></text>
    <text
       xml:space="preserve"
       style="font-size:12px;font-style:italic;font-variant:normal;font-weight:bold;font-stretch:normal;text-align:center;line-height:100%;text-anchor:middle;fill:#FFFFFF;fill-opacity:1;stroke:none;display:inline;font-family:Serif"
       x="267.12378"
       y="31.855732"
       id="text9764"
       sodipodi:linespacing="100%"><tspan
         sodipodi:role="line"
         x="287.12378"
         y="41.855732"
         style="font-size:11px;font-style:italic;font-variant:normal;font-weight:bold;font-stretch:normal;text-align:center;line-height:100%;text-anchor:middle;font-family:Serif"
         id="tspan9812">Nord-Pas-</tspan><tspan
         sodipodi:role="line"
         x="307.12378"
         y="53.855732"
         style="font-size:11px;font-style:italic;font-variant:normal;font-weight:bold;font-stretch:normal;text-align:center;line-height:100%;text-anchor:middle;font-family:Serif"
         id="tspan9816">de-Calais</tspan></text>
    <text
       xml:space="preserve"
       style="font-size:12px;font-style:italic;font-variant:normal;font-weight:bold;font-stretch:normal;text-align:center;line-height:100%;text-anchor:middle;fill:#FFFFFF;fill-opacity:1;stroke:none;display:inline;font-family:Serif"
       x="216.14029"
       y="83.898766"
       id="text9776"
       sodipodi:linespacing="100%"><tspan
         sodipodi:role="line"
         id="tspan9778"
         x="226.14029"
         y="83.898766"
         style="font-size:12px;font-style:italic;font-variant:normal;font-weight:bold;font-stretch:normal;text-align:center;line-height:100%;text-anchor:middle;font-family:Serif">Haute-</tspan><tspan
         sodipodi:role="line"
         x="226.14029"
         y="95.898766"
         style="font-size:12px;font-style:italic;font-variant:normal;font-weight:bold;font-stretch:normal;text-align:center;line-height:100%;text-anchor:middle;font-family:Serif"
         id="tspan9818">Normandie</tspan></text>
    <text
       xml:space="preserve"
       style="font-size:12px;font-style:italic;font-variant:normal;font-weight:bold;font-stretch:normal;text-align:center;line-height:100%;text-anchor:middle;fill:#FFFFFF;fill-opacity:1;stroke:none;display:inline;font-family:Serif"
       x="168.26984"
       y="118.68507"
       id="text9780"
       sodipodi:linespacing="100%"><tspan
         sodipodi:role="line"
         id="tspan9782"
         x="168.26984"
         y="118.68507"
         style="font-size:12px;font-style:italic;font-variant:normal;font-weight:bold;font-stretch:normal;text-align:center;line-height:100%;text-anchor:middle;font-family:Serif">Basse-</tspan><tspan
         sodipodi:role="line"
         x="168.26984"
         y="130.68506"
         style="font-size:12px;font-style:italic;font-variant:normal;font-weight:bold;font-stretch:normal;text-align:center;line-height:100%;text-anchor:middle;font-family:Serif"
         id="tspan9810">Normandie</tspan></text>
    <text
       xml:space="preserve"
       style="font-size:12px;font-style:italic;font-variant:normal;font-weight:bold;font-stretch:normal;text-align:start;line-height:100%;text-anchor:start;fill:#FFFFFF;fill-opacity:1;stroke:none;display:inline;font-family:Serif"
       x="56.7822"
       y="169.966"
       id="text9784"
       sodipodi:linespacing="100%"><tspan
         sodipodi:role="line"
         id="tspan9786"
         x="56.7822"
         y="169.966"
         style="font-size:12px;font-style:italic;font-variant:normal;font-weight:bold;font-stretch:normal;text-align:start;line-height:100%;text-anchor:start;font-family:Serif">Bretagne</tspan></text>
    <text
       xml:space="preserve"
       style="font-size:12px;font-style:italic;font-variant:normal;font-weight:bold;font-stretch:normal;text-align:start;line-height:100%;text-anchor:start;fill:#FFFFFF;fill-opacity:1;stroke:none;display:inline;font-family:Serif"
       x="97.148232"
       y="215.15094"
       id="text9788"
       sodipodi:linespacing="100%"><tspan
         sodipodi:role="line"
         id="tspan9790"
         x="107.148232"
         y="215.15094"
         style="font-size:12px;font-style:italic;font-variant:normal;font-weight:bold;font-stretch:normal;text-align:start;line-height:100%;text-anchor:start;font-family:Serif">Pays de la Loire</tspan></text>
    <text
       xml:space="preserve"
       style="font-size:12px;font-style:italic;font-variant:normal;font-weight:bold;font-stretch:normal;text-align:start;line-height:100%;text-anchor:start;fill:#FFFFFF;fill-opacity:1;stroke:none;display:inline;font-family:Serif"
       x="234.39091"
       y="212.21695"
       id="text9792"
       sodipodi:linespacing="100%"><tspan
         sodipodi:role="line"
         id="tspan9794"
         x="234.39091"
         y="212.21695"
         style="font-size:12px;font-style:italic;font-variant:normal;font-weight:bold;font-stretch:normal;text-align:start;line-height:100%;text-anchor:start;font-family:Serif">Centre</tspan></text>
    <text
       xml:space="preserve"
       style="font-size:12px;font-style:italic;font-variant:normal;font-weight:bold;font-stretch:normal;text-align:start;line-height:100%;text-anchor:start;fill:#FFFFFF;fill-opacity:1;stroke:none;display:inline;font-family:Serif"
       x="220.92665"
       y="311.50662"
       id="text9796"
       sodipodi:linespacing="100%"><tspan
         sodipodi:role="line"
         id="tspan9798"
         x="220.92665"
         y="311.50662"
         style="font-size:12px;font-style:italic;font-variant:normal;font-weight:bold;font-stretch:normal;text-align:start;line-height:100%;text-anchor:start;font-family:Serif">Limousin</tspan></text>
    <text
       xml:space="preserve"
       style="font-size:12px;font-style:italic;font-variant:normal;font-weight:bold;font-stretch:normal;text-align:start;line-height:100%;text-anchor:start;fill:#FFFFFF;fill-opacity:1;stroke:none;display:inline;font-family:Serif"
       x="546.33698"
       y="508.177"
       id="text9822"
       sodipodi:linespacing="100%"><tspan
         sodipodi:role="line"
         id="tspan9824"
         x="546.33698"
         y="508.177"
         style="font-size:12px;font-style:italic;font-variant:normal;font-weight:bold;font-stretch:normal;text-align:start;line-height:100%;text-anchor:start;font-family:Serif">Corse</tspan></text>
  </g>
</svg>